<?xml version="1.0" standalone="no"?>
<!DOCTYPE svg PUBLIC "-//W3C//DTD SVG 1.1//EN" "http://www.w3.org/Graphics/SVG/1.1/DTD/svg11.dtd" >
<svg xmlns="http://www.w3.org/2000/svg">
<metadata>Generated by IcoMoon</metadata>
<defs>
<font id="01fonts" horiz-adv-x="1024">
<font-face units-per-em="1024" ascent="960" descent="-64" />
<missing-glyph horiz-adv-x="1024" />
<glyph unicode="&#x20;" horiz-adv-x="512" d="" />
<glyph unicode="&#xe900;" glyph-name="wechat" horiz-adv-x="1170" d="M331.429 687.428c0 31.429-20.571 52-52 52-30.857 0-62.286-20.571-62.286-52 0-30.857 31.429-51.429 62.286-51.429 31.429 0 52 20.571 52 51.429zM756 397.714c0 20.571-20.571 41.143-52 41.143-20.571 0-41.143-20.571-41.143-41.143 0-21.143 20.571-41.714 41.143-41.714 31.429 0 52 20.571 52 41.714zM621.143 687.428c0 31.429-20.571 52-51.429 52-31.429 0-62.286-20.571-62.286-52 0-30.857 30.857-51.429 62.286-51.429 30.857 0 51.429 20.571 51.429 51.429zM984 397.714c0 20.571-21.143 41.143-52 41.143-20.571 0-41.143-20.571-41.143-41.143 0-21.143 20.571-41.714 41.143-41.714 30.857 0 52 20.571 52 41.714zM832 624.571c-13.143 1.714-26.286 2.286-40 2.286-196.571 0-352-146.857-352-327.429 0-30.286 4.571-59.429 13.143-86.857-13.143-1.143-25.714-1.714-38.857-1.714-52 0-93.143 10.286-145.143 20.571l-144.571-72.571 41.143 124.571c-103.429 72.571-165.714 166.286-165.714 280 0 197.143 186.286 352 414.286 352 203.429 0 382.286-124 417.714-290.857zM1170.286 304c0-93.143-61.714-176-145.143-238.286l31.429-103.429-113.714 62.286c-41.714-10.286-83.429-21.143-124.571-21.143-197.143 0-352 134.857-352 300.571s154.857 300.571 352 300.571c186.286 0 352-134.857 352-300.571z" />
<glyph unicode="&#xe901;" glyph-name="search" horiz-adv-x="991" d="M397.683 155.492c-219.634 0-397.683 178.049-397.683 397.683s178.049 397.683 397.683 397.683c219.634 0 397.683-178.049 397.683-397.683v0c-0.223-219.545-178.138-397.46-397.662-397.683h-0.021zM397.683 820.469c-147.623 0-267.295-119.672-267.295-267.295s119.672-267.295 267.295-267.295c147.623 0 267.295 119.672 267.295 267.295v0c0 147.623-119.672 267.295-267.295 267.295v0zM569.962 256.113l92.198 92.198 329.239-329.239-92.198-92.198-329.239 329.239z" />
<glyph unicode="&#xe902;" glyph-name="iphone" horiz-adv-x="656" d="M615.209 950.857h-574.735c-22.353 0-40.474-18.121-40.474-40.474v0-943.051c0-22.353 18.121-40.474 40.474-40.474v0h574.735c22.353 0 40.474 18.121 40.474 40.474v0 943.051c0 22.353-18.121 40.474-40.474 40.474v0zM327.842-13.767c-39.856 0-72.166 32.31-72.166 72.166s32.31 72.166 72.166 72.166c39.856 0 72.166-32.31 72.166-72.166v0c0-39.856-32.31-72.166-72.166-72.166v0zM558.545 189.94h-461.407v647.589h461.407z" />
<glyph unicode="&#xe903;" glyph-name="arr" horiz-adv-x="577" d="M92.144-73.143l-92.144 92.035 419.911 419.911-419.911 419.911 92.144 92.144 465.928-465.928c11.8-11.787 19.099-28.077 19.099-46.072s-7.299-34.285-19.098-46.071l-0.001-0.001z" />
<glyph unicode="&#xe904;" glyph-name="pro04" d="M852.601-68.441h-733.94c-65.535 0-118.661 53.126-118.661 118.661v0 733.94c0 65.535 53.126 118.661 118.661 118.661v0h531.777c16.99 0 30.764-13.773 30.764-30.764s-13.773-30.764-30.764-30.764v0h-531.777c-31.554 0-57.133-25.579-57.133-57.133v0-733.94c0-31.554 25.579-57.133 57.133-57.133v0h733.94c31.554 0 57.133 25.579 57.133 57.133v0 531.777c0 16.99 13.773 30.764 30.764 30.764s30.764-13.773 30.764-30.764v0-531.777c0-65.535-53.126-118.661-118.661-118.661v0zM584.163 376.23v0c-0.066-0.001-0.145-0.001-0.223-0.001-8.385 0-15.987 3.355-21.536 8.795l-95.539 95.539c-5.568 5.567-9.012 13.259-9.012 21.755s3.444 16.187 9.012 21.754l410.918 410.962c5.544 5.437 13.147 8.793 21.534 8.793 0.155 0 0.31-0.001 0.464-0.003h-0.023c0.001 0 0.001 0 0.002 0 8.495 0 16.185-3.443 21.752-9.009v0l95.368-95.148c5.568-5.567 9.012-13.259 9.012-21.755s-3.444-16.187-9.012-21.754l-410.962-410.918c-5.567-5.567-13.258-9.009-21.752-9.009-0.001 0-0.002 0-0.002 0v0zM532.128 502.538l52.035-52.035 367.453 367.409-52.079 52.079zM458.427 355.97c-0.016 0-0.035 0-0.054 0-11.481 0-20.788 9.307-20.788 20.788 0 0.526 0.020 1.047 0.058 1.563l-0.004-0.069 7.955 114.046c0.826 10.823 9.812 19.292 20.775 19.292 5.755 0 10.965-2.334 14.736-6.107l106.092-106.18c3.773-3.77 6.107-8.981 6.107-14.736 0-10.963-8.469-19.948-19.221-20.77l-0.071-0.004-114.046-7.955zM531.777 665.499h-364.773c-16.99 0-30.764 13.773-30.764 30.764s13.773 30.764 30.764 30.764v0h364.773c16.99 0 30.764-13.773 30.764-30.764s-13.773-30.764-30.764-30.764v0zM399.931 524.864h-232.927c-16.99 0-30.764 13.773-30.764 30.764s13.773 30.764 30.764 30.764v0h232.927c16.99 0 30.764-13.773 30.764-30.764s-13.773-30.764-30.764-30.764v0zM325.219 384.229h-158.215c-16.99 0-30.764 13.773-30.764 30.764s13.773 30.764 30.764 30.764v0h158.215c16.99 0 30.764-13.773 30.764-30.764s-13.773-30.764-30.764-30.764v0zM817.442 384.229h-87.897c-16.99 0-30.764 13.773-30.764 30.764s13.773 30.764 30.764 30.764v0h87.897c16.99 0 30.764-13.773 30.764-30.764s-13.773-30.764-30.764-30.764v0zM817.442 243.594h-650.438c-16.99 0-30.764 13.773-30.764 30.764s13.773 30.764 30.764 30.764v0h650.438c16.99 0 30.764-13.773 30.764-30.764s-13.773-30.764-30.764-30.764v0zM817.442 102.959h-650.438c-16.99 0-30.764 13.773-30.764 30.764s13.773 30.764 30.764 30.764v0h650.438c16.99 0 30.764-13.773 30.764-30.764s-13.773-30.764-30.764-30.764v0z" />
<glyph unicode="&#xe905;" glyph-name="pro05" d="M947.223-59.49h-736.37c-42.73 0-77.369 34.639-77.369 77.369v0 841.956c0 42.73 34.639 77.369 77.369 77.369v0h736.37c42.73 0 77.369-34.639 77.369-77.369v0-841.956c0-42.73-34.639-77.369-77.369-77.369v0zM210.853 873.488c-7.541 0-13.653-6.113-13.653-13.653v0-841.956c0-7.541 6.113-13.653 13.653-13.653v0h736.37c7.541 0 13.653 6.113 13.653 13.653v0 841.956c0 7.541-6.113 13.653-13.653 13.653v0zM203.981-59.49h-133.985c-38.573 0.051-69.841 31.255-69.996 69.799v689.099c0.052 38.637 31.359 69.944 69.991 69.996h95.851c17.595 0 31.858-14.263 31.858-31.858s-14.263-31.858-31.858-31.858v0h-95.846c-3.448-0.050-6.23-2.832-6.28-6.276v-689.089c0.149-3.37 2.894-6.052 6.276-6.098h133.99c17.595 0 31.858-14.263 31.858-31.858s-14.263-31.858-31.858-31.858v0zM579.038 356.709c-113.435 0-205.392 91.957-205.392 205.392s91.957 205.392 205.392 205.392c113.435 0 205.392-91.957 205.392-205.392v0c-0.155-113.372-92.019-205.236-205.377-205.392h-0.015zM579.038 703.777c-78.246 0-141.676-63.431-141.676-141.676s63.431-141.676 141.676-141.676c78.246 0 141.676 63.431 141.676 141.676v0c-0.104 78.204-63.472 141.573-141.666 141.676h-0.010zM623.093 474.083c-0.014 0-0.031 0-0.049 0-4.465 0-8.59 1.451-11.931 3.908l0.056-0.039-32.131 23.347-32.131-23.347c-3.307-2.445-7.465-3.913-11.966-3.913-11.185 0-20.252 9.067-20.252 20.252 0 2.295 0.382 4.502 1.086 6.559l-0.042-0.143 12.288 37.82-31.949 23.211c-4.908 3.736-8.044 9.581-8.044 16.159 0 11.069 8.88 20.064 19.905 20.25h39.748l12.288 37.774c2.708 8.211 10.311 14.033 19.274 14.033s16.565-5.822 19.233-13.89l0.041-0.143 12.242-37.774h39.731c11.062-0.161 19.967-9.166 19.967-20.25 0-6.578-3.136-12.423-7.994-16.122l-0.050-0.036-32.131-23.347 12.288-37.82c0.624-1.862 0.984-4.007 0.984-6.235 0-11.185-9.067-20.252-20.252-20.252-0.010 0-0.020 0-0.029 0h0.002zM837.131 211.802h-518.554c-17.595 0-31.858 14.263-31.858 31.858s14.263 31.858 31.858 31.858v0h518.827c17.595 0 31.858-14.263 31.858-31.858s-14.263-31.858-31.858-31.858v0zM837.131 112.633h-518.554c-17.595 0-31.858 14.263-31.858 31.858s14.263 31.858 31.858 31.858v0h518.827c17.595 0 31.858-14.263 31.858-31.858s-14.263-31.858-31.858-31.858v0z" />
<glyph unicode="&#xe906;" glyph-name="pro06" d="M795.538 539.095h-372.638c-0.314-0.013-0.682-0.020-1.053-0.020-15.006 0-27.171 12.165-27.171 27.171s12.165 27.171 27.171 27.171c0.37 0 0.739-0.007 1.105-0.022l-0.053 0.002h372.638c14.546-0.582 26.118-12.515 26.118-27.15s-11.572-26.569-26.065-27.149l-0.053-0.002zM302.631 539.095h-73.72c-0.314-0.013-0.682-0.020-1.053-0.020-15.006 0-27.171 12.165-27.171 27.171s12.165 27.171 27.171 27.171c0.37 0 0.739-0.007 1.105-0.022l-0.053 0.002h73.72c14.546-0.582 26.118-12.515 26.118-27.15s-11.572-26.569-26.065-27.149l-0.053-0.002zM795.538 422.701h-128.224c-0.314-0.013-0.682-0.020-1.053-0.020-15.006 0-27.171 12.165-27.171 27.171s12.165 27.171 27.171 27.171c0.37 0 0.739-0.007 1.105-0.022l-0.053 0.002h128.224c14.546-0.582 26.118-12.515 26.118-27.15s-11.572-26.569-26.065-27.149l-0.053-0.002zM562.547 422.701h-333.636c-0.314-0.013-0.682-0.020-1.053-0.020-15.006 0-27.171 12.165-27.171 27.171s12.165 27.171 27.171 27.171c0.37 0 0.739-0.007 1.105-0.022l-0.053 0.002h333.636c0.314 0.013 0.682 0.020 1.053 0.020 15.006 0 27.171-12.165 27.171-27.171s-12.165-27.171-27.171-27.171c-0.37 0-0.739 0.007-1.105 0.022l0.053-0.002zM795.538 290.805h-128.224c-0.314-0.013-0.682-0.020-1.053-0.020-15.006 0-27.171 12.165-27.171 27.171s12.165 27.171 27.171 27.171c0.37 0 0.739-0.007 1.105-0.022l-0.053 0.002h128.224c14.546-0.582 26.118-12.515 26.118-27.15s-11.572-26.569-26.065-27.149l-0.053-0.002zM562.547 290.805h-157.761c-0.314-0.013-0.682-0.020-1.053-0.020-15.006 0-27.171 12.165-27.171 27.171s12.165 27.171 27.171 27.171c0.37 0 0.739-0.007 1.105-0.022l-0.053 0.002h157.761c0.314 0.013 0.682 0.020 1.053 0.020 15.006 0 27.171-12.165 27.171-27.171s-12.165-27.171-27.171-27.171c-0.37 0-0.739 0.007-1.105 0.022l0.053-0.002zM302.631 290.805h-73.72c-0.314-0.013-0.682-0.020-1.053-0.020-15.006 0-27.171 12.165-27.171 27.171s12.165 27.171 27.171 27.171c0.37 0 0.739-0.007 1.105-0.022l-0.053 0.002h73.72c14.546-0.582 26.118-12.515 26.118-27.15s-11.572-26.569-26.065-27.149l-0.053-0.002zM795.538 663.239h-128.224c-0.314-0.013-0.682-0.020-1.053-0.020-15.006 0-27.171 12.165-27.171 27.171s12.165 27.171 27.171 27.171c0.37 0 0.739-0.007 1.105-0.022l-0.053 0.002h128.224c14.546-0.582 26.118-12.515 26.118-27.15s-11.572-26.569-26.065-27.149l-0.053-0.002zM562.547 663.239h-139.647c-0.314-0.013-0.682-0.020-1.053-0.020-15.006 0-27.171 12.165-27.171 27.171s12.165 27.171 27.171 27.171c0.37 0 0.739-0.007 1.105-0.022l-0.053 0.002h139.647c0.314 0.013 0.682 0.020 1.053 0.020 15.006 0 27.171-12.165 27.171-27.171s-12.165-27.171-27.171-27.171c-0.37 0-0.739 0.007-1.105 0.022l0.053-0.002zM290.963 663.239h-62.052c-0.314-0.013-0.682-0.020-1.053-0.020-15.006 0-27.171 12.165-27.171 27.171s12.165 27.171 27.171 27.171c0.37 0 0.739-0.007 1.105-0.022l-0.053 0.002h62.052c0.314 0.013 0.682 0.020 1.053 0.020 15.006 0 27.171-12.165 27.171-27.171s-12.165-27.171-27.171-27.171c-0.37 0-0.739 0.007-1.105 0.022l0.053-0.002zM919.479 154.993h-814.712c-57.833 0.070-104.697 46.933-104.766 104.76v496.586c0.070 57.833 46.933 104.697 104.76 104.766h814.719c57.833-0.070 104.697-46.933 104.766-104.76v-496.586c-0.070-57.833-46.933-104.697-104.76-104.766h-0.007zM104.766 806.803c-27.853-0.046-50.419-22.613-50.466-50.461v-496.583c0.046-27.845 22.618-50.402 50.463-50.425h814.715c27.84 0.023 50.402 22.585 50.425 50.423v496.581c-0.023 27.848-22.58 50.419-50.42 50.466h-0.004zM512.122 15.345c-15.006 0-27.171 12.165-27.171 27.171v0 139.647c-0.013 0.314-0.020 0.682-0.020 1.053 0 15.006 12.165 27.171 27.171 27.171s27.171-12.165 27.171-27.171c0-0.37-0.007-0.739-0.022-1.105l0.002 0.053v-139.647c0 0 0 0 0 0 0-14.992-12.141-27.147-27.128-27.171h-0.002zM711.904 15.345h-399.605c-14.546 0.582-26.118 12.515-26.118 27.15s11.572 26.569 26.065 27.149l0.053 0.002h399.809c0.314 0.013 0.682 0.020 1.053 0.020 15.006 0 27.171-12.165 27.171-27.171s-12.165-27.171-27.171-27.171c-0.37 0-0.739 0.007-1.105 0.022l0.053-0.002z" />
<glyph unicode="&#xe907;" glyph-name="pro07" d="M512-73.143c-282.77 0-512 229.23-512 512s229.23 512 512 512c282.77 0 512-229.23 512-512v0c-0.345-282.631-229.369-511.655-511.967-512h-0.033zM512 894.193c-251.475 0-455.336-203.861-455.336-455.336s203.861-455.336 455.336-455.336c251.475 0 455.336 203.861 455.336 455.336v0c-0.299 251.355-203.981 455.037-455.307 455.336h-0.029zM466.628 296.468h-64.759l-25.458 66.823h-117.375l-24.285-66.823h-63.261l114.583 294.167h62.776zM357.348 412.832l-40.474 109.281-39.705-109.281zM498.117 296.468v294.167h95.277q54.155 0 70.628-4.412c17.431-4.72 32.018-14.905 42.19-28.572l0.146-0.205q17.080-22.18 17.040-57.271c0.033-0.933 0.051-2.029 0.051-3.129 0-15.444-3.651-30.035-10.137-42.957l0.251 0.552c-6.050-11.73-14.489-21.45-24.734-28.816l-0.239-0.164c-8.745-6.373-19.059-11.205-30.221-13.848l-0.58-0.116c-15.929-2.644-34.285-4.155-52.993-4.155-3.013 0-6.017 0.039-9.011 0.117l0.442-0.009h-38.734v-110.94zM557.493 540.812v-83.458h32.379q35.091 0 46.95 4.614c7.674 2.905 14 7.913 18.453 14.321l0.084 0.128c4.213 6.179 6.728 13.809 6.728 22.027 0 0.296-0.003 0.591-0.010 0.885l0.001-0.044c0.018 0.433 0.028 0.941 0.028 1.452 0 9.625-3.585 18.412-9.494 25.1l0.035-0.041c-6.099 6.731-14.338 11.423-23.637 12.999l-0.243 0.034c-10.389 1.336-22.407 2.098-34.603 2.098-2.848 0-5.685-0.042-8.513-0.124l0.415 0.010zM770.348 296.468v294.167h59.376v-294.086z" />
<glyph unicode="&#xe908;" glyph-name="pro08" d="M429.488 109.273h-64.233v241.529c-22.934-21.39-50.608-38.022-81.248-48.131l-1.561-0.446v58.14c20.929 7.718 39.002 18.259 54.851 31.391l-0.308-0.248c18.081 13.496 32.001 31.639 40.093 52.674l0.274 0.811h52.131zM741.554 168.809v-59.536h-224.645c2.69 23.971 10.479 45.672 22.257 64.637l-0.381-0.658q18.28 30.212 71.934 80.397 43.33 40.283 53.146 54.712c7.916 10.905 12.816 24.453 13.242 39.123l0.002 0.102c0 14.302-3.851 25.388-11.509 32.963-7.686 7.173-18.036 11.576-29.416 11.576-0.846 0-1.686-0.024-2.52-0.072l0.115 0.005c-0.641 0.034-1.391 0.054-2.145 0.054-11.604 0-22.125-4.639-29.809-12.163l0.007 0.007q-11.89-12.060-13.667-40.114l-63.852 6.389q5.67 52.85 35.798 75.911t75.234 23.061q49.507 0 77.773-26.7c17.44-16.035 28.329-38.958 28.329-64.425 0-0.676-0.008-1.351-0.023-2.023l0.002 0.1c0.001-0.155 0.001-0.338 0.001-0.521 0-15.294-2.984-29.891-8.402-43.24l0.276 0.771c-6.939-16.355-15.546-30.46-25.888-43.089l0.246 0.309c-13.165-15.411-26.886-29.346-41.526-42.263l-0.45-0.389q-30.339-27.8-38.421-36.94c-4.777-5.244-9.111-11.060-12.842-17.278l-0.275-0.494zM865.322-71.027h-706.645c-63.097 0-114.248 51.151-114.248 114.248v0 706.645c0 63.097 51.151 114.248 114.248 114.248v0h706.645c63.097 0 114.248-51.151 114.248-114.248v0-706.645c0-63.097-51.151-114.248-114.248-114.248v0zM158.678 804.874c-30.38 0-55.008-24.628-55.008-55.008v0-706.645c0-30.38 24.628-55.008 55.008-55.008v0h706.645c30.38 0 55.008 24.628 55.008 55.008v0 706.645c0 30.38-24.628 55.008-55.008 55.008v0zM949.95 540.411h-875.901c-16.359 0-29.62 13.261-29.62 29.62s13.261 29.62 29.62 29.62v0h875.901c16.359 0 29.62-13.261 29.62-29.62s-13.261-29.62-29.62-29.62v0zM342.744 705.436c-16.359 0-29.62 13.261-29.62 29.62v0 186.182c0 16.359 13.261 29.62 29.62 29.62s29.62-13.261 29.62-29.62v0-186.182c0-16.359-13.261-29.62-29.62-29.62v0zM681.256 705.436c-16.359 0-29.62 13.261-29.62 29.62v0 186.182c0 16.359 13.261 29.62 29.62 29.62s29.62-13.261 29.62-29.62v0-186.182c0-16.359-13.261-29.62-29.62-29.62v0z" />
<glyph unicode="&#xe909;" glyph-name="pro09" d="M512-73.143c-282.77 0-512 229.23-512 512s229.23 512 512 512c282.77 0 512-229.23 512-512v0c-0.345-282.631-229.369-511.655-511.967-512h-0.033zM512 894.193c-251.475 0-455.336-203.861-455.336-455.336s203.861-455.336 455.336-455.336c251.475 0 455.336 203.861 455.336 455.336v0c-0.299 251.355-203.981 455.037-455.307 455.336h-0.029zM262.435 300.799v285.425h92.484q52.617 0 68.523-4.047c16.92-4.59 31.076-14.489 40.939-27.767l0.142-0.201q16.594-21.492 16.554-55.571c0.031-0.901 0.049-1.96 0.049-3.023 0-14.996-3.546-29.164-9.845-41.711l0.244 0.536c-5.869-11.465-14.078-20.968-24.055-28.174l-0.23-0.158c-8.484-6.172-18.484-10.861-29.302-13.444l-0.568-0.114c-15.664-2.632-33.71-4.137-52.108-4.137-2.698 0-5.388 0.032-8.071 0.097l0.398-0.008h-37.52v-107.662zM320.071 538.019v-80.949h31.529q34.039 0 45.574 4.493c7.448 2.823 13.591 7.675 17.93 13.881l0.081 0.123c4.086 6.019 6.524 13.445 6.524 21.44 0 0.274-0.003 0.548-0.009 0.821l0.001-0.041c0.014 0.385 0.022 0.837 0.022 1.291 0 9.368-3.475 17.925-9.206 24.452l0.036-0.042c-5.921 6.533-13.925 11.081-22.958 12.596l-0.234 0.032c-10.022 1.283-21.616 2.015-33.381 2.015-2.779 0-5.548-0.041-8.308-0.122l0.405 0.009zM528.594 300.799v285.425h121.423q45.736 0 66.459-7.69c14.056-5.301 25.504-14.84 33.067-27.040l0.162-0.281c7.831-12.378 12.478-27.446 12.478-43.599 0-0.495-0.004-0.99-0.013-1.483l0.001 0.074c0.031-0.816 0.049-1.774 0.049-2.736 0-19.381-7.231-37.074-19.142-50.527l0.070 0.080q-18.902-20.885-56.664-26.349c11.807-6.745 21.954-14.7 30.798-23.915l0.044-0.046c11.653-13.653 22.496-28.802 32-44.839l0.825-1.504 35.051-55.571h-68.806l-41.648 62.128c-10.087 15.911-20.098 29.591-30.917 42.575l0.521-0.643c-4.652 5.194-10.457 9.256-17.021 11.797l-0.302 0.103c-7.438 2.090-15.981 3.291-24.803 3.291-1.483 0-2.958-0.034-4.425-0.101l0.208 0.008h-11.657v-119.156zM586.23 465.53h42.619q41.446 0 51.807 3.481c6.743 2.222 12.31 6.479 16.121 12.036l0.069 0.106c3.672 5.662 5.854 12.586 5.854 20.019 0 0.489-0.009 0.977-0.028 1.461l0.002-0.070c0.024 0.483 0.038 1.049 0.038 1.618 0 8.244-2.917 15.808-7.776 21.713l0.047-0.059c-5.507 6.019-13.046 10.1-21.523 11.154l-0.171 0.017q-7.083 1.012-41.891 1.012h-45.169z" />
<glyph unicode="&#xe90a;" glyph-name="pro10" d="M442.581 104.927c-12.323-12.589-22.918-23.672-33.823-34.488-29.346-29.168-66.981-28.858-96.593 0-12.545 12.323-23.539 25.135-26.597 43.309-0.266 1.773-3.502 3.768-5.763 4.433-30.438 8.286-53.959 31.689-62.267 61.44l-0.148 0.62c-0.798 2.735-2.655 4.939-5.085 6.18l-0.057 0.026c-34.931 10.063-55.323 33.557-65.607 68.444-23.45 2.261-39.32 18.352-53.771 35.774-8.765 10.67-14.079 24.466-14.079 39.503 0 16.823 6.651 32.093 17.467 43.323l-0.019-0.020c12.057 12.678 25.090 24.425 38.744 37.591-18.884 18.618-36.616 35.995-54.259 53.549q-35.020 34.887-69.951 69.907c-12.944 12.944-14.274 26.597-3.724 37.148s24.47 8.866 37.236-3.812l501.405-500.918c5.231-5.231 10.373-10.506 15.692-15.648 11.614-11.26 26.597-11.703 36.926-1.197s9.22 25.179-1.862 36.305q-62.061 62.061-124.121 124.121c-7.447 7.403-13.742 15.116-10.683 26.597 2.352 10.532 11.619 18.287 22.697 18.287 5.17 0 9.945-1.689 13.805-4.545l-0.063 0.045c3.278-2.483 6.176-5.114 8.825-7.979l0.040-0.044 123.545-123.368c4.577-5.146 11.217-8.372 18.61-8.372 12.371 0 22.632 9.033 24.548 20.863l0.019 0.143c1.729 9.752-2.793 17.155-9.486 23.76q-61.174 60.952-122.259 122.038c-2.879 2.696-5.496 5.593-7.855 8.696l-0.124 0.17c-2.768 3.792-4.429 8.545-4.429 13.687 0 12.902 10.459 23.361 23.361 23.361 5.030 0 9.688-1.59 13.501-4.294l-0.072 0.049c3.287-2.455 6.187-5.074 8.826-7.936l0.040-0.044q60.509-60.287 120.885-120.797c6.516-6.561 13.299-11.969 23.273-11.127 12.976 0.87 23.172 11.608 23.172 24.728 0 6.974-2.881 13.275-7.518 17.778l-0.006 0.006c-20.391 20.569-40.916 40.96-61.396 61.396-21.81 21.766-43.797 43.354-65.252 65.43-4.336 4.441-7.649 9.901-9.544 15.986l-0.076 0.283c-0.298 1.363-0.469 2.929-0.469 4.535 0 8.474 4.755 15.837 11.742 19.566l0.119 0.058c3.3 1.851 7.242 2.941 11.439 2.941 6.519 0 12.424-2.63 16.711-6.888l-0.001 0.001c17.022-16.535 33.69-33.38 50.446-50.136l78.462-78.329c4.631-5.428 11.478-8.848 19.124-8.848 2.766 0 5.428 0.448 7.917 1.275l-0.177-0.051c8.762 2.658 15.302 9.984 16.782 19.012l0.019 0.138c2.039 10.107-2.571 17.732-9.442 24.736l-103.952 103.73q-102.311 102.223-204.8 204.179c-3.681 3.541-8.438 5.99-13.732 6.809l-0.143 0.018c-31.030 3.192-62.061 5.896-94.11 8.555-1.995-9.575-3.99-18.795-5.763-28.016-9.752-51.732-52.796-89.057-103.686-89.899-1.005-0.034-2.187-0.053-3.373-0.053-51.101 0-93.788 36.028-104.044 84.069l-0.125 0.697c-1.495 6.752-2.352 14.507-2.352 22.462 0 5.983 0.485 11.853 1.417 17.572l-0.084-0.625c5.763 32.803 9.797 66.494 23.982 97.524 37.325 82.496 124.121 126.205 214.774 109.315 73.187-13.609 146.552-26.287 219.828-39.586 0.756-0.285 1.63-0.45 2.542-0.45 3.494 0 6.422 2.42 7.2 5.675l0.010 0.050c2.249 5.367 5.236 9.975 8.896 13.953l-0.030-0.033c19.327 19.815 38.167 40.339 58.869 58.647 27.44 24.204 68.045 21.234 95.219-5.718 35.463-35.109 70.616-70.483 105.902-105.725 33.114-33.069 65.297-67.203 99.652-98.898 27.706-25.534 27.085-78.551 0-104.528-64.499-62.061-127.136-126.293-190.615-189.595-2.172-2.172-4.788-3.857-9.176-7.314 12.146-11.526 23.361-21.411 33.779-32.050 13.172-12.99 21.331-31.034 21.331-50.983 0-18.061-6.688-34.56-17.723-47.155l0.071 0.082c-11.393-13.565-25.090-20.436-50.624-25.445-9.841-44.107-26.065-60.376-68.799-68.533-5.497-39.541-28.060-62.637-67.646-68.444-2.798-10.788-5.83-19.793-9.401-28.52l0.536 1.479c-11.593-24.634-36.208-41.381-64.735-41.381-18.849 0-35.99 7.311-48.742 19.253l0.040-0.037c-28.814 27.351-56.431 55.899-84.535 83.959-1.546 1.913-3.080 4.053-4.488 6.28l-0.166 0.281zM871.819 491.431c-1.020 1.064-2.261 2.438-3.546 3.724q-120.531 120.398-241.327 240.706c-4.4 4.203-9.978 7.21-16.189 8.475l-0.213 0.036c-71.99 13.299-144.114 25.844-216.148 38.965-73.675 13.299-143.404-26.597-165.968-97.036-7.048-21.854-10.329-44.95-14.85-67.557-1.035-4.178-1.629-8.975-1.629-13.91 0-33.247 26.952-60.199 60.199-60.199 29.325 0 53.752 20.968 59.107 48.729l0.061 0.378c3.502 15.781 6.295 31.385 9.664 46.811 4.433 19.859 13.299 26.243 33.247 24.425 39.231-3.546 78.462-7.314 117.738-10.329 10.867-0.595 20.517-5.358 27.466-12.703l0.018-0.019q88.924-89.367 178.336-178.291c24.558-24.603 48.762-49.383 72.833-73.63 34.133 34.355 67.203 67.557 101.203 101.425zM905.819 524.057c23.14 22.874 45.792 44.329 67.513 67.114 8.6 8.866 6.871 22.165-2.66 31.562q-102.799 102.888-205.82 205.554c-11.526 11.481-23.938 11.393-35.463 0-14.363-13.919-28.415-28.193-42.556-42.334-15.648-15.648-15.648-26.597 0-42.29q81.654-81.61 163.308-163.175c18.707-18.707 37.059-37.458 55.677-56.431zM165.081 375.112c-11.614-11.481-23.095-22.165-33.779-33.557-6.915-7.314-6.295-15.294 0-23.273 11.925-14.673 21.234-19.061 30.676-14.363 1.177 0.537 2.188 1.221 3.065 2.045l-0.006-0.005c11.348 11.614 22.608 23.273 33.646 34.71zM370.059 169.691c-10.861-11.127-22.165-22.165-32.582-33.557-3.091-2.945-5.013-7.093-5.013-11.689 0-4.195 1.601-8.017 4.226-10.887l-0.011 0.012c10.816-14.407 20.968-19.815 30.188-16.003 0.937 0.284 1.75 0.724 2.451 1.296l-0.013-0.010c11.659 12.501 23.228 25.002 34.178 36.793zM301.437 237.736c-10.506-10.639-21.455-21.455-32.094-32.537-3.381-3.010-5.5-7.375-5.5-12.234 0-3.911 1.372-7.501 3.662-10.315l-0.024 0.030c11.481-15.382 22.165-20.746 31.784-15.914 1.192 0.506 2.218 1.162 3.114 1.96l-0.011-0.010c11.393 11.57 22.696 23.184 33.779 34.577zM233.348 306.801c-11.171-11.26-22.165-22.165-33.158-33.513-2.994-2.979-4.846-7.102-4.846-11.659s1.853-8.679 4.846-11.658l0.001-0.001c12.412-15.294 21.677-19.549 31.296-14.274 0.295 0.131 0.545 0.311 0.753 0.531l0.001 0.001c11.481 12.589 22.918 25.223 33.513 36.97z" />
<glyph unicode="&#xe90b;" glyph-name="pro03" d="M512-73.143c-282.77 0-512 229.23-512 512s229.23 512 512 512c282.77 0 512-229.23 512-512v0c-0.345-282.631-229.369-511.655-511.967-512h-0.033zM512 894.193c-251.475 0-455.336-203.861-455.336-455.336s203.861-455.336 455.336-455.336c251.475 0 455.336 203.861 455.336 455.336v0c-0.299 251.355-203.981 455.037-455.307 455.336h-0.029zM601.651 198.399h-179.018c-0.006 0-0.014 0-0.022 0-14.090 0-25.778 10.285-27.965 23.757l-0.022 0.163c-0.405 2.59-0.769 5.181-1.093 7.69-0.607 4.695-1.174 8.742-1.983 12.142-3.328 12.788-10.572 23.554-20.355 31.232l-0.125 0.095c-37.234 31.47-63.147 75.307-71.393 125.108l-0.166 1.212c-2.023 11.098-3.18 23.87-3.18 36.913 0 119.212 96.64 215.852 215.852 215.852 106.169 0 194.436-76.651 212.479-177.632l0.194-1.307c12.588-78.439-12.628-147.934-72.854-200.914-11.681-9.665-19.469-23.678-20.869-39.526l-0.016-0.22c-0.202-2.105-0.445-4.047-0.688-6.395l-0.364-3.076c-1.679-14.192-13.64-25.095-28.147-25.095-0.094 0-0.187 0-0.281 0.001h0.014zM446.796 255.063h130.449c6.040 24.294 19.136 44.934 36.96 60.218l0.155 0.13c46.181 40.474 63.99 89.448 54.357 149.35-7.177 43.712-31.806 80.603-66.355 103.912l-0.549 0.349c-25.119 17.312-56.206 27.651-89.709 27.651-88.005 0-159.347-71.342-159.347-159.347 0-9.829 0.89-19.451 2.594-28.788l-0.148 0.975c6.252-37.378 25.294-69.479 52.388-92.336l0.229-0.188c18.887-15.48 32.633-36.602 38.688-60.773l0.167-0.788s0.081-0.283 0.121-0.364zM435.099 182.857h149.755c7.824 0 14.166-6.342 14.166-14.166s-6.342-14.166-14.166-14.166h-149.755c-7.824 0-14.166 6.342-14.166 14.166s6.342 14.166 14.166 14.166zM435.099 142.383h149.755c7.824 0 14.166-6.342 14.166-14.166s-6.342-14.166-14.166-14.166h-149.755c-7.824 0-14.166 6.342-14.166 14.166s6.342 14.166 14.166 14.166zM465.455 101.908h93.091s-21.289-30.356-47.072-30.356-46.019 30.356-46.019 30.356zM246.893 417.608h-56.664c-15.647 0-28.332 12.685-28.332 28.332s12.685 28.332 28.332 28.332v0h56.664c15.647 0 28.332-12.685 28.332-28.332s-12.685-28.332-28.332-28.332v0zM833.771 429.75h-56.664c-15.647 0-28.332 12.685-28.332 28.332s12.685 28.332 28.332 28.332v0h56.664c15.647 0 28.332-12.685 28.332-28.332s-12.685-28.332-28.332-28.332v0zM738.575 561.494c-15.606 0.055-28.236 12.718-28.236 28.332 0 10.425 5.631 19.536 14.018 24.455l0.133 0.072 49.095 28.332c3.925 2.188 8.61 3.476 13.597 3.476 15.647 0 28.332-12.685 28.332-28.332 0-10.199-5.389-19.139-13.474-24.128l-0.122-0.070-49.095-28.332c-4.035-2.392-8.895-3.805-14.084-3.805-0.057 0-0.115 0-0.172 0.001h0.009zM639.251 656.285c-15.626 0.028-28.283 12.702-28.283 28.332 0 5.216 1.409 10.102 3.868 14.3l-0.072-0.134 28.332 49.095c5.060 8.208 14 13.597 24.199 13.597 15.647 0 28.332-12.685 28.332-28.332 0-4.986-1.288-9.671-3.549-13.741l0.074 0.145-28.332-49.095c-4.99-8.528-14.105-14.166-24.536-14.166-0.011 0-0.022 0-0.033 0h0.002zM505.929 688.786c-15.647 0-28.332 12.685-28.332 28.332v0 56.664c0 15.647 12.685 28.332 28.332 28.332s28.332-12.685 28.332-28.332v0-56.664c0-15.647-12.685-28.332-28.332-28.332v0zM374.225 650.214c-0.009 0-0.021 0-0.032 0-10.432 0-19.546 5.638-24.464 14.032l-0.072 0.134-28.332 49.095c-2.595 4.198-4.133 9.287-4.133 14.735 0 15.647 12.685 28.332 28.332 28.332 10.661 0 19.947-5.889 24.783-14.591l0.074-0.145 28.332-49.095c2.386-4.064 3.796-8.95 3.796-14.166 0-15.63-12.657-28.304-28.28-28.332h-0.003zM279.273 550.971c-0.013 0-0.027 0-0.042 0-5.189 0-10.048 1.413-14.213 3.876l0.13-0.071-49.095 28.332c-8.208 5.060-13.597 14-13.597 24.199 0 15.647 12.685 28.332 28.332 28.332 4.986 0 9.671-1.288 13.741-3.549l-0.145 0.074 49.095-28.332c8.52-4.992 14.151-14.102 14.151-24.527 0-15.647-12.685-28.332-28.332-28.332-0.009 0-0.018 0-0.027 0h0.001zM509.976 206.13c-15.647 0-28.332 12.685-28.332 28.332v0 109.685l-54.438 54.438c-5.127 5.127-8.299 12.211-8.299 20.035 0 15.648 12.685 28.333 28.333 28.333 7.824 0 14.907-3.171 20.035-8.299l62.735-62.735c5.126-5.127 8.297-12.21 8.297-20.033 0-0.001 0-0.001 0-0.002v0-121.423c0-15.647-12.685-28.332-28.332-28.332v0zM509.976 327.553c-0.061 0-0.133-0.001-0.205-0.001-15.647 0-28.332 12.685-28.332 28.332 0 7.825 3.172 14.908 8.3 20.035l68.806 68.806c5.171 5.196 12.329 8.412 20.237 8.412 15.767 0 28.548-12.781 28.548-28.548 0-7.858-3.175-14.975-8.312-20.137l-68.805-68.805c-5.106-5.007-12.108-8.098-19.831-8.098-0.143 0-0.285 0.001-0.427 0.003h0.022z" />
<glyph unicode="&#xe90c;" glyph-name="pro02" horiz-adv-x="1574" d="M1098.772-27.871h-0.738l-820.051 14.75c-49.704 1.681-96.275 13.383-138.313 33.135l2.158-0.911c-64.503 30.805-141.828 96.5-141.828 234.527 0 83.111 25.132 149.998 74.772 198.957 81.693 80.558 199.581 79.878 204.516 79.821l748.853-16.679 401.487 344.359c-198.56 3.744-621.662 11.346-720.488 11.346-85.097 0-315.937-163.159-441.143-266.013-7.113-6.793-16.772-10.973-27.406-10.973-21.932 0-39.712 17.78-39.712 39.712 0 13.369 6.606 25.195 16.732 32.391l0.123 0.083c3.461 2.837 86.175 70.63 186.533 139.559 141.601 97.408 241.335 144.665 304.874 144.665 130.482 0 818.86-13.502 825.781-13.616 21.553-0.489 38.839-18.077 38.839-39.702 0-11.937-5.267-22.644-13.603-29.924l-0.047-0.040-492.144-421.627c-6.853-5.93-15.853-9.543-25.697-9.543-0.34 0-0.679 0.004-1.016 0.013l0.050-0.001-763.32 16.792c-0.454 0-90.203 0-147.899-57.469-33.642-33.471-50.661-81.239-50.661-142.112 0-185.398 191.184-187.781 199.297-187.781h0.738l804.45-14.466 421.74 378.908c6.652 5.205 15.137 8.346 24.356 8.346 21.932 0 39.712-17.78 39.712-39.712 0-10.718-4.246-20.445-11.148-27.589l0.011 0.011-433.37-389.12c-6.986-6.262-16.263-10.092-26.436-10.098h-0.001zM1059.173 278.364v0l-735.124 5.673c-15.666 0-28.366 12.7-28.366 28.366s12.7 28.366 28.366 28.366v0 0l724.345-5.673 464.856 406.934c5.153 5.26 12.33 8.521 20.268 8.521 15.666 0 28.366-12.7 28.366-28.366 0-9.255-4.432-17.474-11.29-22.652l-0.072-0.052-472.628-414.082c-4.965-4.369-11.52-7.035-18.698-7.035-0.008 0-0.017 0-0.025 0h0.001zM1076.136 141.131h-0.454l-520.113 7.942c-15.484 0.24-27.943 12.848-27.943 28.366 0 15.668 12.701 28.369 28.369 28.369 0.15 0 0.299-0.001 0.448-0.003h-0.023l509.22-7.772 447.78 394.339c5.143 5.192 12.274 8.407 20.156 8.407 15.666 0 28.366-12.7 28.366-28.366 0-9.155-4.337-17.297-11.069-22.484l-0.066-0.049-455.893-401.714c-4.965-4.369-11.52-7.035-18.698-7.035-0.028 0-0.056 0-0.085 0h0.004zM301.527 300.262l-5.673-373.405 84.87 38.804 84.87-38.804v373.405h-164.067z" />
<glyph unicode="&#xe90d;" glyph-name="pro01" horiz-adv-x="1088" d="M543.976-34.781c-0.014 0-0.031 0-0.047 0-272.189 0-492.843 220.653-492.843 492.843s220.653 492.843 492.843 492.843c272.189 0 492.843-220.653 492.843-492.843v0c0-18.287-14.825-33.112-33.112-33.112s-33.112 14.825-33.112 33.112v0c-0.027 235.569-191 426.525-426.572 426.525-235.589 0-426.572-190.983-426.572-426.572s190.983-426.572 426.572-426.572v0c18.287 0 33.112-14.825 33.112-33.112s-14.825-33.112-33.112-33.112v0zM508.027 69.852h71.852c36.574 0 66.223-29.649 66.223-66.223v-10.548c0-36.574-29.649-66.223-66.223-66.223h-71.852c-36.574 0-66.223 29.649-66.223 66.223v10.548c0 36.574 29.649 66.223 66.223 66.223zM59.128 626.6h9.46c32.655 0 59.128-26.472 59.128-59.128v-167.781c0-32.655-26.472-59.128-59.128-59.128h-9.46c-32.655 0-59.128 26.472-59.128 59.128v167.781c0 32.655 26.472 59.128 59.128 59.128zM1019.364 626.6h9.46c32.655 0 59.128-26.472 59.128-59.128v-167.781c0-32.655-26.472-59.128-59.128-59.128h-9.46c-32.655 0-59.128 26.472-59.128 59.128v167.781c0 32.655 26.472 59.128 59.128 59.128zM436.742 547.416c0-43.732-35.452-79.184-79.184-79.184s-79.184 35.452-79.184 79.184c0 43.732 35.452 79.184 79.184 79.184s79.184-35.452 79.184-79.184zM809.579 547.416c0-43.732-35.452-79.184-79.184-79.184s-79.184 35.452-79.184 79.184c0 43.732 35.452 79.184 79.184 79.184s79.184-35.452 79.184-79.184zM546.531 174.674c-105.682 0.108-191.325 85.75-191.432 191.422v0.011c0 18.287 14.825 33.112 33.112 33.112s33.112-14.825 33.112-33.112v0c0-69.151 56.058-125.209 125.209-125.209s125.209 56.058 125.209 125.209v0c0 18.287 14.825 33.112 33.112 33.112s33.112-14.825 33.112-33.112v0c-0.108-105.682-85.75-191.325-191.422-191.432h-0.011z" />
<glyph unicode="&#xe90e;" glyph-name="time" d="M512-73.143c-282.77 0-512 229.23-512 512s229.23 512 512 512c282.77 0 512-229.23 512-512v0c-0.307-282.646-229.354-511.693-511.971-512h-0.029zM512 843.068c-223.239 0-404.211-180.971-404.211-404.211s180.971-404.211 404.211-404.211c223.239 0 404.211 180.971 404.211 404.211v0c-0.256 223.137-181.074 403.955-404.186 404.211h-0.024zM565.895 299.629h-215.579v107.789h161.684v224.561h107.789v-278.456c0-29.765-24.129-53.895-53.895-53.895v0z" />
<glyph unicode="&#xe90f;" glyph-name="face" horiz-adv-x="1117" d="M1064.812-73.143h-1012.87c-28.687 0-51.942 23.255-51.942 51.942v0c0 184.914 82.514 355.58 222.609 465.326-18.272 41.972-28.902 90.866-28.902 142.244 0 201.299 163.185 364.485 364.485 364.485s364.485-163.185 364.485-364.485c0-51.378-10.63-100.272-29.811-144.605l0.909 2.361c140.318-109.746 222.609-280.413 222.609-465.326 0 0 0-0.001 0-0.001 0-28.556-23.044-51.73-51.551-51.941h-0.020zM106.555 30.741h903.717c-14.326 147.948-93.995 274.761-209.406 352.643l-1.701 1.082c-14.163 9.429-23.37 25.328-23.37 43.377 0 9.726 2.673 18.828 7.325 26.61l-0.131-0.237c22.685 37.867 36.1 83.544 36.1 132.353 0 143.967-116.708 260.675-260.675 260.675s-260.675-116.708-260.675-260.675c0-48.809 13.415-94.486 36.758-133.543l-0.659 1.189c4.52-7.546 7.194-16.647 7.194-26.373 0-18.050-9.206-33.949-23.18-43.258l-0.19-0.119c-117.158-78.921-196.847-205.758-210.955-351.775l-0.152-1.95z" />
<glyph unicode="&#xe910;" glyph-name="home" horiz-adv-x="1057" d="M1017.28 423.337h-977.28c-0.014 0-0.031 0-0.048 0-22.091 0-40 17.909-40 40 0 11.674 5.001 22.181 12.978 29.493l0.030 0.027 488.64 447.52c7.094 6.524 16.6 10.524 27.040 10.524s19.946-3.999 27.069-10.55l-0.029 0.026 488.64-447.52c8.007-7.339 13.008-17.846 13.008-29.52 0-22.091-17.909-40-40-40-0.017 0-0.034 0-0.051 0h0.003zM142.88 503.337h771.44l-385.68 353.28zM901.040-73.143h-744.8c-22.091 0-40 17.909-40 40v0 496.48c0 22.091 17.909 40 40 40v0h744.8c22.091 0 40-17.909 40-40v0-496.48c0-22.091-17.909-40-40-40v0zM196.24 6.857h664.8v416.48h-664.8zM686 174.857h-314.72c-22.091 0-40 17.909-40 40s17.909 40 40 40v0h314.72c22.091 0 40-17.909 40-40s-17.909-40-40-40v0z" />
<glyph unicode="&#xe911;" glyph-name="top" d="M512-73.143c-282.77 0-512 229.23-512 512s229.23 512 512 512c282.77 0 512-229.23 512-512v0c-0.351-282.628-229.371-511.648-511.966-512h-0.034zM512 862.581c-234.016 0-423.724-189.708-423.724-423.724s189.708-423.724 423.724-423.724c234.016 0 423.724 189.708 423.724 423.724v0c-0.251 233.915-189.809 423.473-423.7 423.724h-0.024zM687.139 325.511c-12.165 0.003-23.18 4.927-31.162 12.889l-143.977 143.977-143.978-143.978c-7.929-7.666-18.744-12.39-30.663-12.39-24.377 0-44.138 19.761-44.138 44.138 0 11.919 4.724 22.734 12.402 30.676l175.127 175.127c7.991 8.011 19.042 12.967 31.25 12.967s23.258-4.956 31.249-12.966l175.14-175.14c7.958-7.982 12.879-18.997 12.879-31.161 0-24.373-19.756-44.133-44.128-44.138v0z" />
<glyph unicode="&#xe912;" glyph-name="message" horiz-adv-x="1111" d="M870.419 394.95h-375.85c-26.019 0-47.111 21.092-47.111 47.111s21.092 47.111 47.111 47.111v0h375.85c26.019 0 47.111-21.092 47.111-47.111s-21.092-47.111-47.111-47.111v0zM414.575 592.815h-173.839c-26.019 0-47.111 21.092-47.111 47.111s21.092 47.111 47.111 47.111v0h173.839c26.019 0 47.111-21.092 47.111-47.111s-21.092-47.111-47.111-47.111v0zM686.781-73.143h-1.225c-18.066 0.487-33.548 11.071-41.052 26.294l-0.123 0.276-86.119 177.702h-445.197c-62.445 0-113.066 50.621-113.066 113.066v0 593.596c0 62.445 50.621 113.066 113.066 113.066v0h885.023c62.445 0 113.066-50.621 113.066-113.066v0-593.596c0-62.445-50.621-113.066-113.066-113.066v0h-171.389l-98.65-179.963c-8.192-14.603-23.575-24.309-41.225-24.309-0.015 0-0.031 0-0.046 0h0.002zM113.066 856.635c-10.407 0-18.844-8.437-18.844-18.844v0-593.596c0-10.407 8.437-18.844 18.844-18.844v0h474.782c18.566-0.017 34.615-10.772 42.277-26.387l0.123-0.277 59.077-122.488 68.216 124.844c8.192 14.603 23.575 24.309 41.225 24.309 0.015 0 0.031 0 0.046 0h199.276c10.407 0 18.844 8.437 18.844 18.844v0 593.596c0 10.407-8.437 18.844-18.844 18.844v0z" />
<glyph unicode="&#xe913;" glyph-name="hand" horiz-adv-x="1140" d="M803.943-73.143h-759.931c-22.686 0-41.077 18.391-41.077 41.077v0l-2.934 519.335c0 22.686 18.391 41.077 41.077 41.077v0h313.948c33.566 28.461 139.252 125.051 174.931 240.948 2.641 8.626 5.223 17.605 7.805 26.583 18.661 65.43 44.188 154.979 131.213 154.979 74.761 0 106.742-41.723 120.415-76.756 14.553-37.263 14.553-80.746 14.553-122.763 0-54.75-15.14-158.793-24.94-220.057h180.447c58.975 0 130.861-6.396 164.309-56.452 21.654-32.568 21.654-75.23 0-126.753-3.11-7.453-7.394-18.25-12.323-30.749-76.169-193.064-172.055-390.47-307.493-390.47zM84.854 9.012h719.089c37.38 0 83.68 43.249 130.509 121.824 44.54 74.819 79.397 163.547 100.287 216.536 5.105 13.027 9.506 24.236 13.027 32.627 9.741 23.473 12.499 41.606 7.335 49.41-3.932 5.868-21.126 19.717-95.652 19.717h-228.86c-0.006 0-0.014 0-0.021 0-22.686 0-41.077 18.391-41.077 41.077 0 2.488 0.221 4.925 0.645 7.291l-0.037-0.249c0.352 1.76 31.688 182.266 31.688 254.093 0 102.752-11.267 117.364-52.814 117.364-23.473 0-36.324-39.552-52.227-95.358-2.758-9.565-5.457-19.072-8.274-28.226-50.232-163.194-207.089-285.312-213.72-290.417-6.852-5.308-15.568-8.509-25.033-8.509-0.009 0-0.017 0-0.026 0h-287.54zM363.828-64.341c-22.686 0-41.077 18.391-41.077 41.077v0 510.533c0 22.686 18.391 41.077 41.077 41.077s41.077-18.391 41.077-41.077v0-510.533c0-22.686-18.391-41.077-41.077-41.077v0z" />
<glyph unicode="&#xe914;" glyph-name="info" horiz-adv-x="1757" d="M1660.541 757.127h-788.757c-53.497 0-96.865 43.368-96.865 96.865s43.368 96.865 96.865 96.865v0h788.757c53.497 0 96.865-43.368 96.865-96.865s-43.368-96.865-96.865-96.865v0zM461.215 757.127h-364.35c-53.497 0-96.865 43.368-96.865 96.865s43.368 96.865 96.865 96.865v0h364.35c53.497 0 96.865-43.368 96.865-96.865s-43.368-96.865-96.865-96.865v0zM1660.541 341.992h-1563.676c-53.497 0-96.865 43.368-96.865 96.865s43.368 96.865 96.865 96.865v0h1563.676c53.497 0 96.865-43.368 96.865-96.865s-43.368-96.865-96.865-96.865v0zM1660.541-73.143h-1563.676c-53.497 0-96.865 43.368-96.865 96.865s43.368 96.865 96.865 96.865v0h1563.676c53.497 0 96.865-43.368 96.865-96.865s-43.368-96.865-96.865-96.865v0z" />
<glyph unicode="&#xe915;" glyph-name="right" d="M874.197 801.054c-92.695 92.695-220.751 150.028-362.198 150.028-282.894 0-512.225-229.331-512.225-512.225s229.331-512.225 512.225-512.225c141.447 0 269.504 57.333 362.198 150.028v0c92.586 92.744 149.841 220.784 149.841 362.197s-57.255 269.453-149.848 362.204l0.007-0.007zM555.988 267.891c-9.496-16.23-26.843-26.959-46.695-26.959-0.044 0-0.087 0-0.131 0h0.007c-0.061 0-0.132 0-0.204 0-9.854 0-19.084 2.67-27.006 7.326l0.251-0.136-210.372 119.699 53.379 93.638 164.092-93.638 164.631 286.486 93.548-53.918z" />
<glyph unicode="&#xe916;" glyph-name="star-empty" horiz-adv-x="1071" d="M829.848-73.143c-0.006 0-0.012 0-0.018 0-9.962 0-19.344 2.479-27.565 6.853l0.317-0.154-267.253 141.031-267.136-141.031c-7.944-4.274-17.384-6.785-27.411-6.785-32.454 0-58.763 26.309-58.763 58.763 0 3.518 0.309 6.964 0.902 10.312l-0.052-0.354 51.006 297.222-216.129 211.546c-10.963 10.685-17.763 25.597-17.763 42.096 0 29.474 21.7 53.88 49.995 58.113l0.323 0.040 298.75 42.897 133.627 270.309c9.739 19.779 29.751 33.149 52.886 33.149s43.148-13.37 52.733-32.804l0.154-0.344 133.509-270.309 298.75-43.367c28.273-4.588 49.598-28.825 49.598-58.044 0-16.319-6.652-31.084-17.392-41.731l-0.004-0.004-216.129-211.546 51.006-297.575c0.531-2.968 0.835-6.385 0.835-9.872 0-32.454-26.309-58.763-58.763-58.763-0.004 0-0.009 0-0.013 0h0.001zM535.329 198.694c0.040 0 0.088 0 0.136 0 9.962 0 19.344-2.479 27.565-6.853l-0.317 0.154 189.451-99.074-36.433 210.723c-0.53 2.963-0.833 6.375-0.833 9.857 0 16.496 6.797 31.405 17.744 42.078l0.012 0.012 152.783 149.257-211.546 30.674c-19.417 3.018-35.461 15.178-43.801 31.862l-0.154 0.34-94.608 191.567-94.020-191.567c-8.537-17.079-24.679-29.259-43.865-32.162l-0.325-0.040-212.016-31.262 152.783-149.257c10.899-10.676 17.656-25.545 17.656-41.991 0-3.517-0.309-6.962-0.901-10.309l0.052 0.354-35.845-210.136 189.099 99.427c7.732 4.004 16.879 6.352 26.574 6.352 0.285 0 0.569-0.002 0.853-0.006h-0.043z" />
<glyph unicode="&#xe917;" glyph-name="star" horiz-adv-x="1069" d="M815.896-73.143c-0.051 0-0.11 0-0.17 0-13.295 0-25.813 3.327-36.767 9.194l0.418-0.204-245.072 128.773-244.96-128.773c-10.597-5.672-23.18-9.003-36.542-9.003-43.441 0-78.657 35.216-78.657 78.657 0 4.489 0.376 8.89 1.098 13.174l-0.064-0.462 46.745 272.827-198.215 193.721c-14.652 14.3-23.74 34.244-23.74 56.312 0 39.487 29.097 72.179 67.021 77.802l0.43 0.052 273.838 39.778 122.48 248.331c13.123 26.222 39.779 43.911 70.566 43.911s57.444-17.688 70.36-43.457l0.206-0.454 122.48-248.331 273.951-39.89c38.305-5.72 67.35-38.388 67.35-77.84 0-22.018-9.047-41.923-23.626-56.201l-0.014-0.013-198.328-193.159 46.745-273.389c0.716-3.986 1.126-8.575 1.126-13.259 0-43.441-35.216-78.657-78.657-78.657-0.001 0-0.001 0-0.002 0v0z" />
<glyph unicode="&#xe918;" glyph-name="share" d="M512-73.143c-282.77 0-512 229.23-512 512s229.23 512 512 512c282.77 0 512-229.23 512-512v0c-0.33-282.637-229.363-511.67-511.968-512h-0.032zM512 892.817c-250.715 0-453.96-203.245-453.96-453.96s203.245-453.96 453.96-453.96c250.715 0 453.96 203.245 453.96 453.96v0c-0.283 250.601-203.358 453.676-453.932 453.959h-0.027zM663.32 142.436c-59.53 0-107.789 48.259-107.789 107.789s48.259 107.789 107.789 107.789c59.53 0 107.789-48.259 107.789-107.789v0c0-59.53-48.259-107.789-107.789-107.789v0zM663.32 299.974c-27.476 0-49.749-22.273-49.749-49.749s22.273-49.749 49.749-49.749c27.476 0 49.749 22.273 49.749 49.749v0c0 27.476-22.273 49.749-49.749 49.749v0zM663.32 519.699c-59.53 0-107.789 48.259-107.789 107.789s48.259 107.789 107.789 107.789c59.53 0 107.789-48.259 107.789-107.789v0c0-59.53-48.259-107.789-107.789-107.789v0zM663.32 677.238c-27.476 0-49.749-22.273-49.749-49.749s22.273-49.749 49.749-49.749c27.476 0 49.749 22.273 49.749 49.749v0c0 27.476-22.273 49.749-49.749 49.749v0zM302.64 337.286c-59.53 0-107.789 48.259-107.789 107.789s48.259 107.789 107.789 107.789c59.53 0 107.789-48.259 107.789-107.789v0c0-59.53-48.259-107.789-107.789-107.789v0zM302.64 494.825c-27.476 0-49.749-22.273-49.749-49.749s22.273-49.749 49.749-49.749c27.476 0 49.749 22.273 49.749 49.749v0c0 27.476-22.273 49.749-49.749 49.749v0zM356.534 469.95c-0.006 0-0.013 0-0.021 0-16.027 0-29.020 12.993-29.020 29.020 0 12.65 8.094 23.41 19.385 27.383l0.203 0.062 240.453 82.915c2.817 1.003 6.067 1.582 9.452 1.582 16.031 0 29.027-12.996 29.027-29.027 0-12.646-8.087-23.403-19.371-27.382l-0.203-0.062-240.453-82.915c-2.811-0.998-6.054-1.575-9.432-1.575-0.007 0-0.015 0-0.022 0h0.001zM584.551 221.205c-5.212 0.011-10.099 1.393-14.321 3.806l0.142-0.075-236.308 132.664c-8.577 5.147-14.228 14.397-14.228 24.967 0 16.027 12.993 29.020 29.020 29.020 4.996 0 9.696-1.262 13.801-3.485l-0.153 0.076 236.308-132.664c8.89-5.073 14.785-14.493 14.785-25.289 0-16.027-12.993-29.020-29.020-29.020-0.009 0-0.019 0-0.028 0h0.001z" />
<glyph unicode="&#xe919;" glyph-name="back" d="M512-73.143c-282.77 0-512 229.23-512 512s229.23 512 512 512c282.77 0 512-229.23 512-512v0c-0.351-282.628-229.371-511.648-511.966-512h-0.034zM512 862.581c-234.016 0-423.724-189.708-423.724-423.724s189.708-423.724 423.724-423.724c234.016 0 423.724 189.708 423.724 423.724v0c-0.251 233.915-189.809 423.473-423.7 423.724h-0.024zM687.139 325.511c-12.165 0.003-23.18 4.927-31.162 12.889l-143.977 143.977-143.978-143.978c-7.929-7.666-18.744-12.39-30.663-12.39-24.377 0-44.138 19.761-44.138 44.138 0 11.919 4.724 22.734 12.402 30.676l175.127 175.127c7.991 8.011 19.042 12.967 31.25 12.967s23.258-4.956 31.249-12.966l175.14-175.14c7.958-7.982 12.879-18.997 12.879-31.161 0-24.373-19.756-44.133-44.128-44.138v0z" />
<glyph unicode="&#xe91a;" glyph-name="refresh" horiz-adv-x="968" d="M484.060-73.143c-0.126 0-0.276 0-0.425 0-267.105 0-483.636 216.531-483.636 483.636 0 0.15 0 0.299 0 0.449v-0.024h101.907c0-0.051 0-0.112 0-0.173 0-211.057 171.096-382.153 382.153-382.153 105.529 0 201.068 42.774 270.224 111.931v0c69.14 68.768 111.93 163.97 111.93 269.165 0 0.372-0.001 0.745-0.002 1.117v-0.058h101.907c0-0.126 0-0.276 0-0.425 0-267.105-216.531-483.636-483.636-483.636-0.15 0-0.299 0-0.449 0h0.024zM968.121 410.748h-101.907c0 0.001 0 0.002 0 0.003 0 211.057-171.096 382.153-382.153 382.153-105.529 0-201.068-42.774-270.224-111.931v0l-72.1 72.015c87.602 87.623 208.634 141.82 342.324 141.82 267.339 0 484.059-216.72 484.060-484.059v0zM135.877 609.382c-0.001 0-0.001 0-0.002 0-28.141 0-50.954 22.813-50.954 50.954 0 0.149 0.001 0.298 0.002 0.447v-0.023l1.783 239.143c0.217 27.976 22.946 50.571 50.952 50.571 14.060 0 26.79-5.695 36.009-14.904l229.291-229.291c9.183-9.214 14.861-21.927 14.861-35.967 0-27.394-21.618-49.739-48.725-50.906l-0.105-0.004-230.82-9.936zM187.68 777.784l-0.425-64.117 61.824 2.718z" />
<glyph unicode="&#xe91b;" glyph-name="v" d="M512 950.857c-282.77 0-512-229.23-512-512s229.23-512 512-512c282.77 0 512 229.23 512 512v0c0 282.77-229.23 512-512 512v0zM563.802 247.008c-10.688-17.783-29.877-29.498-51.802-29.498s-41.115 11.714-51.651 29.226l-0.152 0.272-191.649 322.359 103.504 61.54 139.947-235.319 139.947 235.118 103.504-61.34z" />
<glyph unicode="&#xe91c;" glyph-name="query11" horiz-adv-x="1051" d="M646.778 950.857c-131.779-0.004-248.83-63.060-322.63-160.644l-0.736-1.016c-47.936-28.12-88.174-63.988-120.316-106.337l-0.735-1.010c-121.79-71.244-202.301-201.399-202.301-350.359 0-223.421 181.118-404.539 404.539-404.539 131.783 0 248.848 63.013 322.708 160.553l0.734 1.012c47.928 28.134 88.163 63.999 120.316 106.338l0.735 1.009c121.813 71.25 202.341 201.425 202.341 350.408 0 223.446-181.139 404.584-404.584 404.584-0.025 0-0.050 0-0.075 0h0.004zM805.606 244.924c-2.101-1.142-4.248-2.193-6.349-3.289 6.391 26.943 10.055 57.878 10.055 89.669 0 223.519-181.134 404.732-404.624 404.858h-0.012c-0.013 0-0.029 0-0.045 0-14.77 0-29.357-0.78-43.724-2.3l1.789 0.154 4.157 6.121c46.081 24.826 100.847 39.414 159.020 39.414 188.051 0 340.496-152.445 340.496-340.496 0-72.63-22.74-139.948-61.489-195.224l0.726 1.093zM404.676-9.192c-188.1 0.067-340.56 152.569-340.56 340.679 0 129.992 72.806 242.979 179.864 300.41l1.822 0.893 6.349 3.243c44.58 22.941 97.281 36.389 153.123 36.389 187.975 0 340.359-152.384 340.359-340.359 0-70.183-21.242-135.405-57.648-189.586l0.773 1.221c-1.37-2.056-2.786-4.111-4.203-6.121-28.636-40.919-64.796-74.528-106.728-99.444l-1.579-0.869c-48.962-29.196-107.977-46.457-171.024-46.457-0.193 0-0.386 0-0.579 0h0.030zM918.16 340.714c7.663 29.444 12.063 63.245 12.063 98.074 0 223.442-181.072 404.593-404.484 404.721h-0.013c-17.835-0.010-35.392-1.155-52.615-3.367l2.048 0.215c49.176 29.192 108.409 46.444 171.671 46.444 188.051 0 340.496-152.445 340.496-340.496 0-77.608-25.964-149.152-69.68-206.418l0.605 0.826zM531.482 356.657v-54.45h-92.958v-29.6h92.775v-54.541h-92.775v-67.332h-69.159v67.286h-91.359v54.541h91.359v29.646h-91.359v54.45h64.226l-76.696 155.676h75.965l49.334-105.063c4.959-9.789 9.5-21.325 12.978-33.312l0.36-1.45c4.048 13.608 8.566 25.133 13.913 36.183l-0.62-1.421 50.248 105.063h76.011l-77.655-155.676z" />
<glyph unicode="&#xe91d;" glyph-name="query09" horiz-adv-x="1093" d="M547.318-73.143h-520.62c-14.745 0-26.698 11.953-26.698 26.698v0c0 95.046 42.412 182.77 114.422 239.18-9.392 21.574-14.856 46.706-14.856 73.114 0 103.469 83.878 187.347 187.347 187.347s187.347-83.878 187.347-187.347c0-26.408-5.464-51.54-15.323-74.328l0.467 1.213c72.124-56.41 114.422-144.133 114.422-239.18 0 0 0 0 0-0.001 0-14.678-11.845-26.59-26.497-26.698h-0.010zM54.77-19.746h464.515c-7.375 76.042-48.322 141.221-107.636 181.26l-0.874 0.556c-7.28 4.846-12.012 13.019-12.012 22.296 0 4.999 1.374 9.678 3.765 13.678l-0.067-0.122c11.66 19.464 18.555 42.942 18.555 68.030 0 74-59.989 133.988-133.988 133.988s-133.988-59.989-133.988-133.988c0-25.088 6.895-48.566 18.894-68.642l-0.339 0.611c2.324-3.878 3.698-8.557 3.698-13.556 0-9.278-4.732-17.45-11.914-22.235l-0.098-0.061c-60.212-40.573-101.169-105.764-108.432-180.813l-0.079-1.004zM712.124-36.032c-14.61 0.177-26.385 12.062-26.385 26.697 0 12.231 8.225 22.542 19.446 25.702l0.188 0.045c193.677 52.205 333.872 226.281 333.872 433.102 0 247.339-200.508 447.847-447.847 447.847-208.948 0-384.474-143.094-433.93-336.632l-0.672-3.101c-2.982-11.734-13.452-20.275-25.917-20.275-14.747 0-26.702 11.955-26.702 26.702 0 2.282 0.286 4.497 0.825 6.611l-0.040-0.185c55.584 220.085 251.822 380.378 485.498 380.378 0.36 0 0.72 0 1.080-0.001h-0.056c276.367 0 501.168-225.030 501.168-501.206 0-0.012 0-0.026 0-0.039 0-231.516-156.959-426.372-370.27-483.96l-3.508-0.806c-2.025-0.557-4.351-0.877-6.751-0.877v0zM604.453 369.288c-14.745 0-26.698 11.953-26.698 26.698v0 82.956c0 14.745 11.953 26.698 26.698 26.698v0c0.011 0 0.025 0 0.038 0 53.988 0 97.754 43.766 97.754 97.754s-43.766 97.754-97.754 97.754c-53.988 0-97.754-43.766-97.754-97.754 0-0.013 0-0.027 0-0.040v0.002c0-14.745-11.953-26.698-26.698-26.698s-26.698 11.953-26.698 26.698v0c0 0.010 0 0.021 0 0.033 0 83.479 67.673 151.151 151.151 151.151s151.151-67.673 151.151-151.151c0-74.056-53.258-135.672-123.561-148.639l-0.93-0.142v-58.622c0-14.745-11.953-26.698-26.698-26.698v0zM667.385 264.402c0-36.863-29.883-66.746-66.746-66.746s-66.746 29.883-66.746 66.746c0 36.863 29.883 66.746 66.746 66.746s66.746-29.883 66.746-66.746z" />
<glyph unicode="&#xe91e;" glyph-name="query021" d="M1023.645 624.539l-35.469 255.805c-1.297 9.177-5.942 17.080-12.636 22.58l-0.062 0.049c-5.506 6.576-13.269 11.105-22.083 12.391l-0.192 0.023-255.805 35.115c-1.454 0.211-3.133 0.332-4.839 0.332-9.767 0-18.613-3.948-25.027-10.335l-401.299-401.086-47.671 47.6c-6.418 6.416-15.284 10.385-25.077 10.385s-18.659-3.969-25.077-10.385v0l-125.42-125.632c-6.416-6.418-10.385-15.284-10.385-25.077s3.969-18.659 10.385-25.077l113.076-113.005-145.708-145.282c-6.416-6.418-10.385-15.284-10.385-25.077s3.969-18.659 10.385-25.077l165.571-165.571c6.418-6.416 15.284-10.385 25.077-10.385s18.659 3.969 25.077 10.385l145.495 145.495 112.863-112.863c6.418-6.416 15.284-10.385 25.077-10.385s18.659 3.969 25.077 10.385v0l125.136 125.42c6.416 6.418 10.385 15.284 10.385 25.077s-3.969 18.659-10.385 25.077v0l-47.6 47.671 401.3 401.3c6.518 6.435 10.556 15.369 10.556 25.246 0 1.729-0.124 3.43-0.363 5.093l0.022-0.19zM705.202 877.861l167.344-22.984-456.136-456.136-94.987 95.271zM200.969 12.409l-115.346 115.559 120.099 120.596 115.417-115.417zM509.482 45.041l-391.227 391.298 75.195 75.266 391.298-391.298zM567.51 248.564l-95.625 94.987 456.136 456.136 22.984-167.628z" />
<glyph unicode="&#xe91f;" glyph-name="query12" d="M306.948 377.216c-144.511 0-261.661 117.15-261.661 261.661s117.15 261.661 261.661 261.661c144.511 0 261.661-117.15 261.661-261.661v0c-0.172-144.442-117.219-261.489-261.644-261.661h-0.017zM306.948 830.090c-105.604 0-191.214-85.609-191.214-191.214s85.609-191.214 191.214-191.214c105.604 0 191.214 85.609 191.214 191.214v0c0 105.604-85.609 191.214-191.214 191.214v0zM506.968 191.034c-144.511 0-261.661 117.15-261.661 261.661s117.15 261.661 261.661 261.661c144.511 0 261.661-117.15 261.661-261.661v0c-0.172-144.442-117.219-261.489-261.644-261.661h-0.017zM506.968 643.909c-105.604 0-191.214-85.609-191.214-191.214s85.609-191.214 191.214-191.214c105.604 0 191.214 85.609 191.214 191.214v0c0 105.604-85.609 191.214-191.214 191.214v0zM706.988-22.824c-144.511 0-261.661 117.15-261.661 261.661s117.15 261.661 261.661 261.661c144.511 0 261.661-117.15 261.661-261.661v0c-0.172-144.442-117.219-261.489-261.644-261.661h-0.017zM706.988 430.051c-105.604 0-191.214-85.609-191.214-191.214s85.609-191.214 191.214-191.214c105.604 0 191.214 85.609 191.214 191.214v0c0 105.604-85.609 191.214-191.214 191.214v0zM988.827-73.143c-0.038 0-0.083 0-0.128 0-9.687 0-18.452 3.944-24.778 10.314l-0.002 0.002-14.24 14.19c-6.375 6.375-10.317 15.181-10.317 24.908 0 19.454 15.771 35.225 35.225 35.225 9.727 0 18.534-3.943 24.908-10.317l14.19-14.19c6.375-6.374 10.318-15.181 10.318-24.908 0-19.437-15.743-35.196-35.173-35.224h-0.003zM832.233 83.401c-0.076-0.001-0.166-0.001-0.256-0.001-9.601 0-18.304 3.841-24.658 10.070l-14.234 14.234c-6.375 6.375-10.317 15.181-10.317 24.908 0 19.454 15.771 35.225 35.225 35.225 9.727 0 18.534-3.943 24.908-10.317l14.24-14.24c6.376-6.374 10.319-15.181 10.319-24.909 0-19.453-15.77-35.224-35.224-35.224-0.090 0-0.179 0-0.269 0.001h0.014zM675.689 239.944c-0.001 0-0.002 0-0.003 0-9.726 0-18.531 3.942-24.906 10.316l-14.24 14.24c-6.375 6.375-10.317 15.181-10.317 24.908 0 19.454 15.771 35.225 35.225 35.225 9.727 0 18.534-3.943 24.908-10.317l14.24-14.24c6.375-6.374 10.318-15.181 10.318-24.908 0-19.453-15.77-35.224-35.224-35.224-0.001 0-0.002 0-0.003 0v0zM519.145 396.488c-0.15-0.002-0.327-0.004-0.505-0.004-9.602 0-18.307 3.842-24.661 10.073l-14.234 14.234c-6.375 6.375-10.317 15.181-10.317 24.908 0 19.454 15.771 35.225 35.225 35.225 9.727 0 18.534-3.943 24.908-10.317l14.24-14.24c6.529-6.399 10.576-15.308 10.576-25.163 0-19.453-15.77-35.224-35.224-35.224-0.18 0-0.36 0.001-0.539 0.004h0.027zM362.551 553.082c-0.15-0.002-0.327-0.004-0.505-0.004-9.602 0-18.307 3.842-24.661 10.073l-14.184 14.184c-6.375 6.375-10.317 15.181-10.317 24.908 0 19.454 15.771 35.225 35.225 35.225 9.727 0 18.534-3.943 24.908-10.317v0l14.442-13.938c6.529-6.399 10.576-15.308 10.576-25.163 0-19.453-15.77-35.224-35.224-35.224-0.18 0-0.36 0.001-0.539 0.004h0.027zM206.008 709.626c-0.076-0.001-0.166-0.001-0.256-0.001-9.601 0-18.304 3.841-24.658 10.070l-14.234 14.234c-6.375 6.375-10.317 15.181-10.317 24.908 0 19.454 15.771 35.225 35.225 35.225 9.727 0 18.534-3.943 24.908-10.317v0l14.24-14.039c6.376-6.374 10.319-15.181 10.319-24.909 0-19.453-15.77-35.224-35.224-35.224-0.090 0-0.179 0-0.269 0.001h0.014zM49.464 866.169c-0.076-0.001-0.166-0.001-0.256-0.001-9.601 0-18.304 3.841-24.658 10.070l-14.234 14.234c-6.407 6.407-10.369 15.258-10.369 25.034 0 19.553 15.851 35.403 35.403 35.403 9.776 0 18.627-3.963 25.034-10.369v0l14.24-14.24c6.527-6.398 10.573-15.307 10.573-25.161 0-19.453-15.77-35.224-35.224-35.224-0.091 0-0.181 0-0.272 0.001h0.014z" />
<glyph unicode="&#xe920;" glyph-name="query13" d="M512-73.143c-282.77 0-512 229.23-512 512s229.23 512 512 512c282.77 0 512-229.23 512-512v0c-0.345-282.631-229.369-511.655-511.967-512h-0.033zM512 894.193c-251.475 0-455.336-203.861-455.336-455.336s203.861-455.336 455.336-455.336c251.475 0 455.336 203.861 455.336 455.336v0c-0.299 251.355-203.981 455.037-455.307 455.336h-0.029zM466.628 296.468h-64.759l-25.458 66.823h-117.375l-24.285-66.823h-63.261l114.583 294.167h62.776zM357.348 412.832l-40.474 109.281-39.705-109.281zM498.117 296.468v294.167h95.277q54.155 0 70.628-4.412c17.431-4.72 32.018-14.905 42.19-28.572l0.146-0.205q17.080-22.18 17.040-57.271c0.033-0.933 0.051-2.029 0.051-3.129 0-15.444-3.651-30.035-10.137-42.957l0.251 0.552c-6.050-11.73-14.489-21.45-24.734-28.816l-0.239-0.164c-8.745-6.373-19.059-11.205-30.221-13.848l-0.58-0.116c-15.929-2.644-34.285-4.155-52.993-4.155-3.013 0-6.017 0.039-9.011 0.117l0.442-0.009h-38.734v-110.94zM557.493 540.812v-83.458h32.379q35.091 0 46.95 4.614c7.674 2.905 14 7.913 18.453 14.321l0.084 0.128c4.213 6.179 6.728 13.809 6.728 22.027 0 0.296-0.003 0.591-0.010 0.885l0.001-0.044c0.018 0.433 0.028 0.941 0.028 1.452 0 9.625-3.585 18.412-9.494 25.1l0.035-0.041c-6.099 6.731-14.338 11.423-23.637 12.999l-0.243 0.034c-10.389 1.336-22.407 2.098-34.603 2.098-2.848 0-5.685-0.042-8.513-0.124l0.415 0.010zM770.348 296.468v294.167h59.376v-294.086z" />
<glyph unicode="&#xe921;" glyph-name="query14" horiz-adv-x="1574" d="M1369.207 555.545h-457.228c-18.413 0-33.34 14.927-33.34 33.34s14.927 33.34 33.34 33.34v0h457.228c18.413 0 33.34-14.927 33.34-33.34s-14.927-33.34-33.34-33.34v0zM764.333 555.545h-90.493c-18.413 0-33.34 14.927-33.34 33.34s14.927 33.34 33.34 33.34v0h90.493c18.413 0 33.34-14.927 33.34-33.34s-14.927-33.34-33.34-33.34v0zM1369.207 412.662h-157.172c-18.413 0-33.34 14.927-33.34 33.34s14.927 33.34 33.34 33.34v0h157.172c18.413 0 33.34-14.927 33.34-33.34s-14.927-33.34-33.34-33.34v0zM1083.44 412.662h-409.6c-18.413 0-33.34 14.927-33.34 33.34s14.927 33.34 33.34 33.34v0h409.6c18.413 0 33.34-14.927 33.34-33.34s-14.927-33.34-33.34-33.34v0zM1369.207 250.727h-157.172c-18.413 0-33.34 14.927-33.34 33.34s14.927 33.34 33.34 33.34v0h157.172c18.413 0 33.34-14.927 33.34-33.34s-14.927-33.34-33.34-33.34v0zM1083.44 250.727h-193.655c-18.413 0-33.34 14.927-33.34 33.34s14.927 33.34 33.34 33.34v0h193.655c18.413 0 33.34-14.927 33.34-33.34s-14.927-33.34-33.34-33.34v0zM764.333 250.727h-90.493c-18.413 0-33.34 14.927-33.34 33.34s14.927 33.34 33.34 33.34v0h90.493c18.413 0 33.34-14.927 33.34-33.34s-14.927-33.34-33.34-33.34v0zM1369.207 707.955h-157.172c-18.413 0-33.34 14.927-33.34 33.34s14.927 33.34 33.34 33.34v0h157.172c18.413 0 33.34-14.927 33.34-33.34s-14.927-33.34-33.34-33.34v0zM1083.44 707.955h-171.46c-18.413 0-33.34 14.927-33.34 33.34s14.927 33.34 33.34 33.34v0h171.46c18.413 0 33.34-14.927 33.34-33.34s-14.927-33.34-33.34-33.34v0zM750.044 707.955h-76.205c-18.413 0-33.34 14.927-33.34 33.34s14.927 33.34 33.34 33.34v0h76.205c18.413 0 33.34-14.927 33.34-33.34s-14.927-33.34-33.34-33.34v0zM1445.412 84.029h-600.112c-18.413 0-33.34 14.927-33.34 33.34s14.927 33.34 33.34 33.34v0h600.112c34.195 0 61.916 27.721 61.916 61.916v0 609.637c0 34.195-27.721 61.916-61.916 61.916v0h-923.981c-34.195 0-61.916-27.721-61.916-61.916v0-133.358c0-18.413-14.927-33.34-33.34-33.34s-33.34 14.927-33.34 33.34v0 133.358c0 71.021 57.574 128.595 128.595 128.595v0h923.981c71.021 0 128.595-57.574 128.595-128.595v0-609.637c0-71.021-57.574-128.595-128.595-128.595v0zM683.46-73.143h-650.121c-18.413 0-33.34 14.927-33.34 33.34v0c0 118.689 52.962 228.233 142.884 298.675-11.728 26.94-18.551 58.324-18.551 91.301 0 129.206 104.742 233.948 233.948 233.948s233.948-104.742 233.948-233.948c0-32.977-6.823-64.361-19.135-92.816l0.584 1.515c90.064-70.442 142.884-179.986 142.884-298.675 0 0 0-0.001 0-0.001 0-18.329-14.791-33.204-33.089-33.339h-0.013zM68.394-6.464h580.060c-9.195 94.962-60.332 176.358-134.41 226.348l-1.092 0.694c-9.091 6.052-15 16.257-15 27.842 0 6.243 1.716 12.085 4.702 17.080l-0.084-0.152c14.561 24.306 23.171 53.623 23.171 84.952 0 92.407-74.91 167.317-167.317 167.317s-167.317-74.91-167.317-167.317c0-31.329 8.61-60.647 23.594-85.716l-0.423 0.763c2.901-4.843 4.617-10.685 4.617-16.928 0-11.585-5.909-21.79-14.878-27.766l-0.122-0.077c-75.199-50.656-126.349-132.068-135.404-225.791l-0.098-1.252z" />
<glyph unicode="&#xe922;" glyph-name="query15" d="M512-73.143c-282.77 0-512 229.23-512 512s229.23 512 512 512c282.77 0 512-229.23 512-512v0c-0.345-282.631-229.369-511.655-511.967-512h-0.033zM512 894.193c-251.475 0-455.336-203.861-455.336-455.336s203.861-455.336 455.336-455.336c251.475 0 455.336 203.861 455.336 455.336v0c-0.299 251.355-203.981 455.037-455.307 455.336h-0.029zM262.435 300.799v285.425h92.484q52.617 0 68.523-4.047c16.92-4.59 31.076-14.489 40.939-27.767l0.142-0.201q16.594-21.492 16.554-55.571c0.031-0.901 0.049-1.96 0.049-3.023 0-14.996-3.546-29.164-9.845-41.711l0.244 0.536c-5.869-11.465-14.078-20.968-24.055-28.174l-0.23-0.158c-8.484-6.172-18.484-10.861-29.302-13.444l-0.568-0.114c-15.664-2.632-33.71-4.137-52.108-4.137-2.698 0-5.388 0.032-8.071 0.097l0.398-0.008h-37.52v-107.662zM320.071 538.019v-80.949h31.529q34.039 0 45.574 4.493c7.448 2.823 13.591 7.675 17.93 13.881l0.081 0.123c4.086 6.019 6.524 13.445 6.524 21.44 0 0.274-0.003 0.548-0.009 0.821l0.001-0.041c0.014 0.385 0.022 0.837 0.022 1.291 0 9.368-3.475 17.925-9.206 24.452l0.036-0.042c-5.921 6.533-13.925 11.081-22.958 12.596l-0.234 0.032c-10.022 1.283-21.616 2.015-33.381 2.015-2.779 0-5.548-0.041-8.308-0.122l0.405 0.009zM528.594 300.799v285.425h121.423q45.736 0 66.459-7.69c14.056-5.301 25.504-14.84 33.067-27.040l0.162-0.281c7.831-12.378 12.478-27.446 12.478-43.599 0-0.495-0.004-0.99-0.013-1.483l0.001 0.074c0.031-0.816 0.049-1.774 0.049-2.736 0-19.381-7.231-37.074-19.142-50.527l0.070 0.080q-18.902-20.885-56.664-26.349c11.807-6.745 21.954-14.7 30.798-23.915l0.044-0.046c11.653-13.653 22.496-28.802 32-44.839l0.825-1.504 35.051-55.571h-68.806l-41.648 62.128c-10.087 15.911-20.098 29.591-30.917 42.575l0.521-0.643c-4.652 5.194-10.457 9.256-17.021 11.797l-0.302 0.103c-7.438 2.090-15.981 3.291-24.803 3.291-1.483 0-2.958-0.034-4.425-0.101l0.208 0.008h-11.657v-119.156zM586.23 465.53h42.619q41.446 0 51.807 3.481c6.743 2.222 12.31 6.479 16.121 12.036l0.069 0.106c3.672 5.662 5.854 12.586 5.854 20.019 0 0.489-0.009 0.977-0.028 1.461l0.002-0.070c0.024 0.483 0.038 1.049 0.038 1.618 0 8.244-2.917 15.808-7.776 21.713l0.047-0.059c-5.507 6.019-13.046 10.1-21.523 11.154l-0.171 0.017q-7.083 1.012-41.891 1.012h-45.169z" />
<glyph unicode="&#xe923;" glyph-name="query16" horiz-adv-x="1037" d="M862.11-73.143h-742.126c-66.266 0-119.984 53.719-119.984 119.984v0 742.126c0 66.266 53.719 119.984 119.984 119.984v0h537.708c17.18 0 31.107-13.927 31.107-31.107s-13.927-31.107-31.107-31.107v0h-537.708c-31.906 0-57.77-25.865-57.77-57.77v0-742.126c0-31.906 25.865-57.77 57.77-57.77v0h742.126c31.906 0 57.77 25.865 57.77 57.77v0 537.708c0 17.18 13.927 31.107 31.107 31.107s31.107-13.927 31.107-31.107v0-537.708c0-66.266-53.719-119.984-119.984-119.984v0zM590.679 376.487v0c-0.067-0.001-0.146-0.001-0.226-0.001-8.479 0-16.165 3.392-21.776 8.893l-96.605 96.605c-5.63 5.629-9.112 13.407-9.112 21.997s3.482 16.368 9.112 21.997l415.501 415.546c5.606 5.498 13.294 8.891 21.774 8.891 0.157 0 0.313-0.001 0.469-0.003h-0.024c0.001 0 0.001 0 0.002 0 8.589 0 16.366-3.481 21.995-9.11v0l96.432-96.21c5.63-5.629 9.112-13.407 9.112-21.997s-3.482-16.368-9.112-21.997l-415.546-415.501c-5.629-5.629-13.405-9.11-21.995-9.11-0.001 0-0.002 0-0.002 0v0zM538.063 504.204l52.615-52.615 371.552 371.507-52.66 52.66zM463.54 356.001c-0.016 0-0.035 0-0.054 0-11.609 0-21.019 9.411-21.019 21.019 0 0.532 0.020 1.059 0.059 1.581l-0.004-0.070 8.043 115.318c0.836 10.944 9.921 19.507 21.006 19.507 5.819 0 11.088-2.36 14.9-6.175l107.275-107.364c3.815-3.812 6.175-9.081 6.175-14.9 0-11.085-8.563-20.171-19.435-21.002l-0.071-0.004-115.318-8.043zM537.708 668.983h-368.841c-17.18 0-31.107 13.927-31.107 31.107s13.927 31.107 31.107 31.107v0h368.841c17.18 0 31.107-13.927 31.107-31.107s-13.927-31.107-31.107-31.107v0zM404.392 526.779h-235.525c-17.18 0-31.107 13.927-31.107 31.107s13.927 31.107 31.107 31.107v0h235.525c17.18 0 31.107-13.927 31.107-31.107s-13.927-31.107-31.107-31.107v0zM328.846 384.575h-159.979c-17.18 0-31.107 13.927-31.107 31.107s13.927 31.107 31.107 31.107v0h159.979c17.18 0 31.107-13.927 31.107-31.107s-13.927-31.107-31.107-31.107v0zM826.559 384.575h-88.877c-17.18 0-31.107 13.927-31.107 31.107s13.927 31.107 31.107 31.107v0h88.877c17.18 0 31.107-13.927 31.107-31.107s-13.927-31.107-31.107-31.107v0zM826.559 242.371h-657.692c-17.18 0-31.107 13.927-31.107 31.107s13.927 31.107 31.107 31.107v0h657.692c17.18 0 31.107-13.927 31.107-31.107s-13.927-31.107-31.107-31.107v0zM826.559 100.168h-657.692c-17.18 0-31.107 13.927-31.107 31.107s13.927 31.107 31.107 31.107v0h657.692c17.18 0 31.107-13.927 31.107-31.107s-13.927-31.107-31.107-31.107v0z" />
<glyph unicode="&#xe924;" glyph-name="query01" d="M546 276.857h-418c-70.692 0-128 57.308-128 128v0 418c0 70.692 57.308 128 128 128v0h418c70.692 0 128-57.308 128-128v0-418c0-70.692-57.308-128-128-128v0zM128 854.857c-17.583-0.223-31.777-14.417-32-31.979v-418.021c0.266-17.565 14.435-31.734 31.975-32h418.025c17.565 0.266 31.734 14.435 32 31.975v418.025c-0.266 17.565-14.435 31.734-31.975 32h-0.025zM896-73.143h-418c-70.692 0-128 57.308-128 128v0 418c0 70.692 57.308 128 128 128v0h418c70.692 0 128-57.308 128-128v0-418c0-70.692-57.308-128-128-128v0zM478 504.857c-17.565-0.266-31.734-14.435-32-31.975v-418.025c0.266-17.565 14.435-31.734 31.975-32h418.025c17.583 0.223 31.777 14.417 32 31.979v418.021c-0.266 17.565-14.435 31.734-31.975 32h-0.025z" />
<glyph unicode="&#xe925;" glyph-name="query02" d="M416.694 313.118c-0.019 0-0.041 0-0.063 0-9.779 0-18.633 3.957-25.050 10.358l-145.423 145.494c-6.416 6.418-10.385 15.284-10.385 25.077s3.969 18.659 10.385 25.077l421.376 421.376c6.413 6.386 15.258 10.334 25.026 10.334 1.707 0 3.385-0.121 5.028-0.354l-0.189 0.022 255.805-35.469c17.42-2.442 30.679-17.245 30.679-35.144 0-9.796-3.971-18.664-10.391-25.082l-531.686-532.040c-6.335-5.98-14.901-9.656-24.326-9.656-0.276 0-0.552 0.003-0.827 0.009l0.041-0.001zM321.423 494.012l95.271-95.271 455.852 456.136-167.344 22.984zM567.51 162.586c-9.786 0.022-18.637 4.004-25.040 10.427l-0.001 0.001-145.85 145.424c-6.438 6.422-10.42 15.302-10.42 25.112s3.983 18.69 10.42 25.112l532.041 531.686c6.384 6.226 15.12 10.066 24.753 10.066 17.835 0 32.595-13.163 35.096-30.304l0.023-0.192 35.469-255.805c0.217-1.473 0.34-3.173 0.34-4.902 0-9.772-3.951-18.62-10.344-25.036l-421.375-421.304c-6.408-6.358-15.234-10.286-24.978-10.286-0.047 0-0.095 0-0.142 0h0.007zM471.884 343.551l95.625-95.342 383.849 383.849-22.984 167.628zM509.482-40.511c-9.776 0.002-18.628 3.959-25.042 10.358l-441.45 441.45c-6.416 6.418-10.385 15.284-10.385 25.077s3.969 18.659 10.385 25.077l125.419 125.349c6.418 6.416 15.284 10.385 25.077 10.385s18.659-3.969 25.077-10.385l441.168-441.38c6.416-6.418 10.385-15.284 10.385-25.077s-3.969-18.659-10.385-25.077v0l-125.136-125.42c-6.416-6.4-15.27-10.357-25.049-10.357-0.022 0-0.045 0-0.067 0h0.003zM118.255 436.339l391.227-391.227 75.266 75.195-391.298 391.298zM200.969-73.143c-9.776 0.002-18.628 3.959-25.042 10.358l-165.57 165.57c-6.416 6.418-10.385 15.284-10.385 25.077s3.969 18.659 10.385 25.077v0l170.608 170.253c6.459 6.681 15.501 10.828 25.513 10.828 19.589 0 35.469-15.88 35.469-35.469 0-10.011-4.148-19.054-10.818-25.503l-0.010-0.010-145.495-145.070 115.346-115.346 145.495 145.495c6.372 6.16 15.063 9.957 24.641 9.957 19.589 0 35.469-15.88 35.469-35.469 0-9.578-3.796-18.269-9.966-24.651l-170.243-170.243c-6.429-6.663-15.424-10.813-25.388-10.854h-0.008z" />
<glyph unicode="&#xe926;" glyph-name="query03" horiz-adv-x="966" d="M931.325 436.527c-0.068-0.001-0.148-0.001-0.228-0.001-8.55 0-16.302 3.421-21.96 8.969l-429.403 429.627-422.955-422.955c-5.677-5.677-13.52-9.188-22.183-9.188-17.326 0-31.371 14.045-31.371 31.371 0 8.663 3.511 16.506 9.188 22.183l445.138 445.138c5.677 5.677 13.52 9.189 22.183 9.189s16.506-3.512 22.183-9.189l451.591-451.591c5.815-5.699 9.419-13.634 9.419-22.41 0-17.325-14.045-31.37-31.37-31.37-0.16 0-0.32 0.001-0.48 0.004h0.024zM482.961 458.217c-65.909 0-119.34 53.43-119.34 119.34s53.43 119.34 119.34 119.34c65.909 0 119.34-53.43 119.34-119.34v0c-0.102-65.869-53.471-119.238-119.33-119.34h-0.010zM482.961 634.156c-31.259 0-56.6-25.341-56.6-56.6s25.341-56.6 56.6-56.6c31.259 0 56.6 25.341 56.6 56.6v0c-0.051 31.239-25.361 56.549-56.595 56.6h-0.005zM921.645 339.728h-877.369c-17.325 0-31.37 14.045-31.37 31.37s14.045 31.37 31.37 31.37v0h877.369c17.325 0 31.37-14.045 31.37-31.37s-14.045-31.37-31.37-31.37v0zM130.454 29.884c-17.325 0-31.37 14.045-31.37 31.37v0 284.076c0 17.325 14.045 31.37 31.37 31.37s31.37-14.045 31.37-31.37v0-284.076c0-17.325-14.045-31.37-31.37-31.37v0zM259.473 30.064c-17.325 0-31.37 14.045-31.37 31.37v0 297.565c0 17.325 14.045 31.37 31.37 31.37s31.37-14.045 31.37-31.37v0-297.565c0-17.325-14.045-31.37-31.37-31.37v0zM416.367 133.315c-17.325 0-31.37 14.045-31.37 31.37v0 103.072c0 17.325 14.045 31.37 31.37 31.37s31.37-14.045 31.37-31.37v0-103.072c0-17.325-14.045-31.37-31.37-31.37v0zM545.431 133.315c-17.325 0-31.37 14.045-31.37 31.37v0 103.072c0 17.325 14.045 31.37 31.37 31.37s31.37-14.045 31.37-31.37v0-103.072c0-17.325-14.045-31.37-31.37-31.37v0zM698.157 29.884c-17.325 0-31.37 14.045-31.37 31.37v0 296.938c0 17.325 14.045 31.37 31.37 31.37s31.37-14.045 31.37-31.37v0-296.938c0-17.325-14.045-31.37-31.37-31.37v0zM835.467 29.884c-17.325 0-31.37 14.045-31.37 31.37v0 296.938c0 17.325 14.045 31.37 31.37 31.37s31.37-14.045 31.37-31.37v0-296.938c0-17.325-14.045-31.37-31.37-31.37v0zM934.551-73.143h-903.181c-17.325 0-31.37 14.045-31.37 31.37v0 103.072c0 17.325 14.045 31.37 31.37 31.37v0h903.181c17.325 0 31.37-14.045 31.37-31.37v0-103.072c0-17.325-14.045-31.37-31.37-31.37v0zM62.74-10.403h840.442v40.333h-840.442z" />
<glyph unicode="&#xe927;" glyph-name="query04" d="M898.896-73.143h-773.792c-69.093 0-125.104 56.011-125.104 125.104v0 773.792c0 69.093 56.011 125.104 125.104 125.104v0h560.652c17.913 0 32.434-14.521 32.434-32.434s-14.521-32.434-32.434-32.434v0h-560.652c-33.267 0-60.235-26.968-60.235-60.235v0-773.792c0-33.267 26.968-60.235 60.235-60.235v0h773.792c33.267 0 60.235 26.968 60.235 60.235v0 852.561c0 17.913 14.521 32.434 32.434 32.434s32.434-14.521 32.434-32.434v0-852.561c0-69.093-56.011-125.104-125.104-125.104v0zM852.561 700.649h-676.489c-17.913 0-32.434 14.521-32.434 32.434s14.521 32.434 32.434 32.434v0h676.489c17.913 0 32.434-14.521 32.434-32.434s-14.521-32.434-32.434-32.434v0zM852.561 552.377h-676.489c-17.913 0-32.434 14.521-32.434 32.434s14.521 32.434 32.434 32.434v0h676.489c17.913 0 32.434-14.521 32.434-32.434s-14.521-32.434-32.434-32.434v0zM342.878 404.106h-166.805c-17.913 0-32.434 14.521-32.434 32.434s14.521 32.434 32.434 32.434v0h166.805c17.913 0 32.434-14.521 32.434-32.434s-14.521-32.434-32.434-32.434v0zM861.828 404.106h-366.045c-17.913 0-32.434 14.521-32.434 32.434s14.521 32.434 32.434 32.434v0h366.045c17.913 0 32.434-14.521 32.434-32.434s-14.521-32.434-32.434-32.434v0zM861.828 255.834h-685.756c-17.913 0-32.434 14.521-32.434 32.434s14.521 32.434 32.434 32.434v0h685.756c17.913 0 32.434-14.521 32.434-32.434s-14.521-32.434-32.434-32.434v0zM861.828 107.563h-685.756c-17.913 0-32.434 14.521-32.434 32.434s14.521 32.434 32.434 32.434v0h685.756c17.913 0 32.434-14.521 32.434-32.434s-14.521-32.434-32.434-32.434v0z" />
<glyph unicode="&#xe928;" glyph-name="query05" horiz-adv-x="1549" d="M1204.544 101.888h-1025.378c-21.312 0-38.59 17.277-38.59 38.59v0 496.151c0 21.312 17.277 38.59 38.59 38.59v0h1025.378c21.312 0 38.59-17.277 38.59-38.59v0-496.151c0-21.312-17.277-38.59-38.59-38.59v0zM217.755 179.067h948.199v418.972h-948.199zM1342.363 245.22c-21.312 0-38.59 17.277-38.59 38.59v0 457.561h-986.789c-21.312 0-38.59 17.277-38.59 38.59s17.277 38.59 38.59 38.59v0h1025.378c21.312 0 38.59-17.277 38.59-38.59v0-496.151c0-21.312-17.277-38.59-38.59-38.59v0zM1502.234 377.527c-21.312 0-38.59 17.277-38.59 38.59v0 457.561h-986.789c-21.312 0-38.59 17.277-38.59 38.59s17.277 38.59 38.59 38.59v0h1025.378c21.312 0 38.59-17.277 38.59-38.59v0-496.151c0-21.312-17.277-38.59-38.59-38.59v0zM691.855 548.424c-88.294 0-159.871-71.577-159.871-159.871s71.577-159.871 159.871-159.871c88.294 0 159.871 71.577 159.871 159.871v0c0 88.294-71.577 159.871-159.871 159.871v0zM746.266 399.578v-23.374h-39.802v-12.735h39.802v-23.374h-39.802v-28.887h-29.769v28.887h-39.251v23.374h39.251v12.735h-39.251v23.374h27.564l-33.077 66.76h32.636l21.114-45.095c2.096-4.21 3.978-9.157 5.378-14.303l0.135-0.582c1.659 5.819 3.537 10.759 5.773 15.497l-0.26-0.613 21.555 45.095h32.636l-32.691-66.76zM99.23 828.198h-77.179c-12.179 0-22.051 9.873-22.051 22.051s9.873 22.051 22.051 22.051v0h77.179c12.179 0 22.051-9.873 22.051-22.051s-9.873-22.051-22.051-22.051v0zM60.641 775.826c-12.179 0-22.051 9.873-22.051 22.051v0 104.743c0 12.179 9.873 22.051 22.051 22.051s22.051-9.873 22.051-22.051v0-104.743c0-12.179-9.873-22.051-22.051-22.051v0zM1527.042 111.535h-77.179c-12.179 0-22.051 9.873-22.051 22.051s9.873 22.051 22.051 22.051v0h77.179c12.179 0 22.051-9.873 22.051-22.051s-9.873-22.051-22.051-22.051v0zM1488.452 59.164c-12.179 0-22.051 9.873-22.051 22.051v0 104.743c0 12.179 9.873 22.051 22.051 22.051s22.051-9.873 22.051-22.051v0-104.743c0-12.179-9.873-22.051-22.051-22.051v0zM1389.222-20.772h-77.179c-12.179 0-22.051 9.873-22.051 22.051s9.873 22.051 22.051 22.051v0h77.179c12.179 0 22.051-9.873 22.051-22.051s-9.873-22.051-22.051-22.051v0zM1350.633-73.143c-12.179 0-22.051 9.873-22.051 22.051v0 104.743c0 12.179 9.873 22.051 22.051 22.051s22.051-9.873 22.051-22.051v0-104.743c0-12.179-9.873-22.051-22.051-22.051v0z" />
<glyph unicode="&#xe929;" glyph-name="query06" horiz-adv-x="1236" d="M0 518.376l271.555-52.54-96.402-455.328-175.153-8.796s2.893 519.615 0 516.664zM332.773 378.229s175.094 0 227.634-52.54c0 0 218.956-8.796 262.7-52.54s35.066-113.876-271.555-70.073l-26.152-34.948 122.613-35.066h148.942s166.416 87.606 218.956 87.606 131.35-52.54 105.080-87.606c0 0-271.555-166.357-385.314-201.364s-481.834 131.35-481.834 131.35zM718.559 377.049c-0.018 0-0.038 0-0.059 0-96.278 0-174.327 78.049-174.327 174.327s78.049 174.327 174.327 174.327c96.278 0 174.327-78.049 174.327-174.327 0-0.021 0-0.042 0-0.062v0.003c-0.134-96.191-78.076-174.133-174.255-174.268h-0.013zM718.559 666.609c-0.018 0-0.038 0-0.059 0-63.675 0-115.293-51.618-115.293-115.293s51.618-115.293 115.293-115.293c63.675 0 115.293 51.618 115.293 115.293v0c-0.067 63.627-51.612 115.192-115.224 115.293h-0.010zM718.559 489.626c-16.302 0-29.517 13.215-29.517 29.517v0 64.347c0 16.302 13.215 29.517 29.517 29.517s29.517-13.215 29.517-29.517v0-64.347c0-16.302-13.215-29.517-29.517-29.517v0zM1061.723 602.263c-96.278 0-174.327 78.049-174.327 174.327s78.049 174.327 174.327 174.327c96.278 0 174.327-78.049 174.327-174.327v0c-0.067-96.251-78.076-174.26-174.321-174.327h-0.006zM1061.723 891.528c-63.675 0-115.293-51.618-115.293-115.293s51.618-115.293 115.293-115.293c63.675 0 115.293 51.618 115.293 115.293 0 0.021 0 0.041 0 0.062v-0.003c0 0.053 0 0.115 0 0.177 0 63.686-51.611 115.318-115.29 115.352h-0.003zM1061.723 714.722c-16.302 0-29.517 13.215-29.517 29.517v0 64.465c0 16.302 13.215 29.517 29.517 29.517s29.517-13.215 29.517-29.517v0-64.465c0-16.302-13.215-29.517-29.517-29.517v0z" />
<glyph unicode="&#xe92a;" glyph-name="query07" horiz-adv-x="915" d="M835.88-72.956h-756.406c-43.892 0-79.474 35.582-79.474 79.474v0 864.865c0 43.892 35.582 79.474 79.474 79.474v0h756.406c43.892 0 79.474-35.582 79.474-79.474v0-864.865c0-43.892-35.582-79.474-79.474-79.474v0zM79.474 885.408c-7.746 0-14.025-6.279-14.025-14.025v0-864.865c0-7.746 6.279-14.025 14.025-14.025v0h756.406c7.746 0 14.025 6.279 14.025 14.025v0 864.865c0 7.746-6.279 14.025-14.025 14.025v0zM722.793 187.018h-532.944c-18.073 0-32.725 14.651-32.725 32.725s14.651 32.725 32.725 32.725v0h532.944c18.073 0 32.725-14.651 32.725-32.725s-14.651-32.725-32.725-32.725v0zM722.793 85.151h-532.944c-18.073 0-32.725 14.651-32.725 32.725s14.651 32.725 32.725 32.725v0h532.944c18.073 0 32.725-14.651 32.725-32.725s-14.651-32.725-32.725-32.725v0zM457.677 427.263c-102.863 0-186.25 83.387-186.25 186.25s83.387 186.25 186.25 186.25c102.863 0 186.25-83.387 186.25-186.25 0-0.016 0-0.033 0-0.049v0.003c-0.133-102.8-83.446-186.097-186.24-186.203h-0.010zM457.677 741.934c-70.951 0-128.467-57.517-128.467-128.467s57.517-128.467 128.467-128.467c70.951 0 128.467 57.517 128.467 128.467v0c0 0.014 0 0.030 0 0.047 0 70.979-57.5 128.528-128.46 128.608h-0.008zM497.601 533.852c-0.001 0-0.002 0-0.004 0-4.057 0-7.807 1.315-10.847 3.542l0.052-0.036-29.125 21.178-29.125-21.178c-2.93-2.064-6.573-3.299-10.504-3.299-10.147 0-18.373 8.226-18.373 18.373 0 1.945 0.302 3.82 0.862 5.579l-0.036-0.13 10.893 34.267-29.125 21.178c-4.614 3.379-7.577 8.777-7.577 14.866 0 10.147 8.226 18.373 18.373 18.373 0.001 0 0.003 0 0.004 0h35.997l11.126 34.267c2.505 7.396 9.384 12.625 17.484 12.625s14.98-5.229 17.446-12.496l0.038-0.13 11.033-34.267h35.997c10.128-0.024 18.329-8.241 18.329-18.372 0-6.090-2.963-11.487-7.526-14.83l-0.052-0.036-29.125-21.178 11.126-34.267c0.566-1.69 0.892-3.635 0.892-5.657 0-10.147-8.226-18.373-18.373-18.373-0.001 0-0.003 0-0.004 0v0zM347.956 495.237l-80.316-126.691h58.858l16.082-48.199 80.316 139.22zM567.445 495.237l80.269-126.691h-58.858l-16.082-48.199-80.316 139.22z" />
<glyph unicode="&#xe92b;" glyph-name="query08" horiz-adv-x="1025" d="M502.633-72.969h-0.61c-6.143 0-12.373 0.349-18.472 0.697-16.131 0.914-28.866 14.219-28.866 30.497 0 16.868 13.675 30.543 30.543 30.543 0.59 0 1.176-0.017 1.758-0.050l-0.081 0.004c5.359-0.305 10.892-0.523 16.338-0.61 16.712-0.172 30.193-13.76 30.193-30.497 0-16.844-13.655-30.498-30.498-30.498-0.107 0-0.214 0.001-0.321 0.002h0.016zM673.677-45.304c-16.823 0.026-30.451 13.67-30.451 30.497 0 13.155 8.329 24.365 20.001 28.643l0.212 0.068c5.141 1.83 10.282 3.747 15.292 5.751 3.624 1.641 7.858 2.597 12.316 2.597 16.843 0 30.497-13.654 30.497-30.497 0-13.183-8.365-24.413-20.077-28.67l-0.212-0.067c-5.707-2.265-11.545-4.357-17.427-6.535-3.006-1.158-6.482-1.869-10.112-1.96l-0.039-0.001zM316.689-32.016c-4.469 0.010-8.706 0.988-12.518 2.735l0.188-0.077c-5.62 2.483-11.284 5.097-16.817 7.799-10.236 5.066-17.15 15.438-17.15 27.425 0 16.847 13.657 30.504 30.504 30.504 4.86 0 9.454-1.136 13.531-3.158l-0.178 0.080c4.923-2.396 9.933-4.749 14.856-6.927 10.778-4.861 18.144-15.512 18.144-27.883 0-16.843-13.654-30.497-30.497-30.497-0.022 0-0.045 0-0.067 0h0.003zM836.836 52.592c-0.015 0-0.033 0-0.051 0-16.843 0-30.497 13.654-30.497 30.497 0 8.933 3.84 16.968 9.96 22.546l0.024 0.022c4.008 3.66 8.016 7.45 11.85 11.197 5.501 5.399 13.046 8.732 21.37 8.732 16.853 0 30.515-13.662 30.515-30.515 0-8.529-3.499-16.242-9.141-21.779l-0.005-0.005c-4.357-4.357-8.713-8.713-13.462-12.722-5.402-4.944-12.627-7.973-20.56-7.973-0.001 0-0.002 0-0.004 0v0zM161.198 78.165c-8.583 0.109-16.296 3.747-21.77 9.527l-0.013 0.014c-4.357 4.357-8.408 9.062-12.46 13.724-5.027 5.421-8.112 12.706-8.112 20.712 0 16.843 13.654 30.497 30.497 30.497 9.404 0 17.814-4.256 23.408-10.948l0.039-0.048c3.572-4.095 7.276-8.147 10.979-12.068 5.141-5.447 8.301-12.812 8.301-20.914 0-16.843-13.654-30.497-30.497-30.497-0.131 0-0.261 0.001-0.392 0.002h0.020zM949.5 205.86c-0.003 0-0.006 0-0.009 0-16.843 0-30.497 13.654-30.497 30.497 0 4.665 1.047 9.084 2.919 13.038l-0.079-0.185c2.265 4.836 4.357 9.89 6.622 14.943 4.211 12.134 15.545 20.688 28.877 20.688 16.843 0 30.497-13.654 30.497-30.497 0-4.968-1.188-9.659-3.295-13.804l0.080 0.173c-2.44-5.751-4.967-11.458-7.537-16.991-4.897-10.572-15.386-17.789-27.568-17.862h-0.010zM60.732 239.451c-0.008 0-0.018 0-0.028 0-12.993 0-24.087 8.125-28.481 19.571l-0.070 0.209c-2.178 5.794-4.357 11.676-6.187 17.427-1.050 2.956-1.657 6.366-1.657 9.917 0 16.843 13.654 30.497 30.497 30.497 13.49 0 24.934-8.758 28.956-20.898l0.062-0.215c1.699-5.097 3.529-10.282 5.446-15.379 1.221-3.171 1.929-6.84 1.929-10.674 0-16.832-13.636-30.479-30.464-30.497h-0.002zM993.852 391.064h-1.133c-16.357 0.616-29.384 14.025-29.384 30.477 0 0.39 0.007 0.779 0.022 1.165l-0.002-0.056c0 5.315 0.305 10.848 0.305 16.294 0 16.843 13.654 30.497 30.497 30.497s30.497-13.654 30.497-30.497v0c0-6.187 0-12.417-0.349-18.516-0.743-16.252-14.099-29.146-30.467-29.146-0.026 0-0.052 0-0.077 0h0.004zM30.497 427.617h-1.176c-16.34 0.637-29.344 14.038-29.344 30.475 0 0.421 0.009 0.841 0.025 1.258l-0.002-0.060c0 6.187 0.566 12.417 1.046 18.516 1.172 15.922 14.378 28.396 30.497 28.396 16.886 0 30.575-13.689 30.575-30.575 0-0.767-0.028-1.527-0.084-2.279l0.006 0.101c-0.436-5.402-0.741-10.892-0.915-16.338-0.556-16.406-13.99-29.495-30.48-29.495-0.052 0-0.103 0-0.155 0h0.008zM974.987 543.287c-0.015 0-0.033 0-0.051 0-13.736 0-25.351 9.081-29.169 21.568l-0.057 0.216c-1.525 5.272-3.137 10.5-4.836 15.597-0.975 2.855-1.537 6.143-1.537 9.563 0 16.85 13.66 30.51 30.51 30.51 13.43 0 24.833-8.677 28.909-20.732l0.063-0.215c1.917-5.794 3.747-11.72 5.489-17.688 0.807-2.608 1.271-5.607 1.271-8.714 0-16.843-13.654-30.497-30.497-30.497-0.033 0-0.067 0-0.1 0h0.005zM75.284 612.69c-0.020 0-0.044 0-0.067 0-16.843 0-30.497 13.654-30.497 30.497 0 4.749 1.086 9.245 3.022 13.252l-0.079-0.182c2.614 5.62 5.359 11.197 8.191 16.686 5.023 10.354 15.455 17.365 27.525 17.365 16.843 0 30.497-13.654 30.497-30.497 0-5.396-1.401-10.465-3.86-14.862l0.079 0.154c-2.44-4.836-4.88-9.759-7.189-14.682-4.938-10.531-15.439-17.701-27.617-17.732h-0.004zM886.72 711.979c-0.005 0-0.011 0-0.017 0-9.535 0-18.048 4.376-23.64 11.229l-0.044 0.055c-3.398 4.357-6.927 8.408-10.5 12.504-4.875 5.385-7.859 12.561-7.859 20.435 0 16.843 13.654 30.497 30.497 30.497 9.337 0 17.694-4.196 23.288-10.805l0.037-0.045c4.052-4.618 8.060-9.41 11.937-14.159 4.243-5.197 6.813-11.905 6.813-19.213 0-16.843-13.654-30.497-30.497-30.497-0.006 0-0.012 0-0.018 0h0.001zM188.471 765.871c-16.828 0.020-30.461 13.667-30.461 30.497 0 8.933 3.84 16.968 9.96 22.546l0.024 0.022c4.357 4.357 9.236 8.278 13.898 12.199 5.432 5.074 12.75 8.19 20.796 8.19 16.843 0 30.497-13.654 30.497-30.497 0-9.892-4.709-18.683-12.008-24.256l-0.074-0.054c-4.357-3.485-8.234-7.101-12.286-10.761-5.36-4.865-12.501-7.854-20.339-7.886h-0.006zM740.074 833.226c-0.004 0-0.008 0-0.013 0-5.281 0-10.245 1.356-14.564 3.738l0.156-0.079c-4.792 2.57-9.672 5.097-14.551 7.45-10.181 5.087-17.050 15.432-17.050 27.382 0 16.851 13.661 30.512 30.512 30.512 4.902 0 9.534-1.156 13.638-3.21l-0.176 0.080c5.533-2.745 11.066-5.577 16.512-8.496 9.652-5.249 16.093-15.313 16.093-26.881 0-16.843-13.654-30.497-30.497-30.497-0.021 0-0.042 0-0.063 0h0.003zM351.891 863.2c-16.82 0.031-30.443 13.673-30.443 30.497 0 13.201 8.387 24.442 20.123 28.687l0.212 0.067c5.751 2.048 11.676 4.008 17.427 5.838 2.925 1.027 6.297 1.62 9.809 1.62 16.843 0 30.497-13.654 30.497-30.497 0-13.866-9.254-25.571-21.922-29.275l-0.216-0.054c-5.184-1.612-10.369-3.355-15.466-5.141-2.846-0.969-6.125-1.529-9.534-1.529-0.171 0-0.341 0.001-0.512 0.004h0.026zM557.658 888.556h-2.875c-5.402 0.479-10.848 0.915-16.294 1.22-16.095 0.96-28.783 14.247-28.783 30.497 0 16.871 13.677 30.548 30.548 30.548 0.621 0 1.237-0.019 1.849-0.055l-0.084 0.004c6.143-0.349 12.373-0.828 18.472-1.394 16.241-0.777 29.114-14.134 29.114-30.497 0-16.861-13.669-30.53-30.53-30.53-0.498 0-0.993 0.012-1.485 0.036l0.070-0.003zM512.087 47.625c-216.264 0-391.581 175.317-391.581 391.581s175.317 391.581 391.581 391.581c216.264 0 391.581-175.317 391.581-391.581v0c-0.297-216.144-175.436-391.283-391.552-391.581h-0.029zM512.087 769.792c-182.578 0-330.587-148.009-330.587-330.587s148.009-330.587 330.587-330.587c182.578 0 330.587 148.009 330.587 330.587v0c-0.297 182.458-148.128 330.29-330.558 330.587h-0.029zM481.59 805.212h60.994v-731.97h-60.994v731.97zM146.124 469.702h731.97v-60.994h-731.97v60.994zM512.741 56.208c-135.058 0-240.795 168.953-240.795 384.566s105.781 384.61 240.795 384.61v-60.994c-97.459 0-179.801-148.128-179.801-323.616s82.342-323.572 179.801-323.572zM511.434 56.208v60.994c97.459 0 179.801 148.128 179.801 323.572s-82.342 323.616-179.801 323.616v60.994c135.058 0 240.795-168.953 240.795-384.61s-105.781-384.566-240.795-384.566z" />
<glyph unicode="&#xe92c;" glyph-name="file" horiz-adv-x="1331" d="M1174.082-73.143h-1126.123c-0.001 0-0.001 0-0.002 0-24.035 0-43.548 19.36-43.796 43.337v0.023c0 2.336-2.336 235.926-3.504 467.18-0.657 135.628-0.657 244.029-0.657 321.989 0 46.499 0.584 82.632 1.168 107.378 1.168 47.375 1.679 69.055 29.199 80.297 5.259 2.413 11.41 3.82 17.889 3.82 0.512 0 1.021-0.009 1.529-0.026l-0.074 0.002h448.712c24.189 0 43.798-19.609 43.798-43.798v0-75.114h631.861c24.189 0 43.798-19.609 43.798-43.798v0-109.495h-87.596v65.697h-631.861c-24.189 0-43.798 19.609-43.798 43.798v0 75.114h-365.787c-2.847-126.066-0.365-543.097 2.482-848.735h1082.762zM1174.082-73.143h-1126.123c-0.008 0-0.017 0-0.027 0-24.189 0-43.798 19.609-43.798 43.798 0 4.024 0.543 7.921 1.559 11.622l-0.072-0.307 112.634 422.287c5.164 18.856 22.146 32.484 42.311 32.484 0.009 0 0.019 0 0.028 0h337.098l72.997 170.521c6.866 15.756 22.304 26.571 40.268 26.571 0.009 0 0.019 0 0.028 0h675.658c24.177-0.016 43.77-19.619 43.77-43.798 0-2.761-0.255-5.462-0.744-8.082l0.042 0.271-112.634-619.378c-3.828-20.566-21.609-35.937-42.99-35.987h-0.005zM104.969 14.453h1032.541l96.721 531.782h-594.34l-72.997-170.521c-6.86-15.742-22.276-26.551-40.219-26.571h-332.43z" />
<glyph unicode="&#xe92d;" glyph-name="query10" horiz-adv-x="2078" d="M1536-73.143h-1012.647c-28.687 0-51.942 23.255-51.942 51.942v0c0 184.914 82.514 355.58 222.609 465.326-18.272 41.972-28.902 90.866-28.902 142.244 0 201.299 163.185 364.485 364.485 364.485s364.485-163.185 364.485-364.485c0-51.378-10.63-100.272-29.811-144.605l0.909 2.361c140.318-109.746 222.609-280.413 222.609-465.326 0 0 0 0 0 0 0-28.635-23.171-51.857-51.786-51.942h-0.008zM577.966 30.741h903.717c-14.326 147.948-93.995 274.761-209.406 352.643l-1.701 1.082c-14.163 9.429-23.37 25.328-23.37 43.377 0 9.726 2.673 18.828 7.325 26.61l-0.131-0.237c22.685 37.867 36.1 83.544 36.1 132.353 0 143.967-116.708 260.675-260.675 260.675s-260.675-116.708-260.675-260.675c0-48.809 13.415-94.486 36.758-133.543l-0.659 1.189c4.52-7.546 7.194-16.647 7.194-26.373 0-18.050-9.206-33.949-23.18-43.258l-0.19-0.119c-117.135-78.943-196.814-205.768-210.954-351.771l-0.153-1.954zM2025.739-36.042h-482.319c-28.687 0-51.942 23.255-51.942 51.942s23.255 51.942 51.942 51.942v0h427.557c-14.3 130.774-85.306 242.514-187.541 311.497l-1.528 0.972c-14.163 9.429-23.37 25.328-23.37 43.377 0 9.726 2.673 18.828 7.325 26.61l-0.131-0.237c19.852 33.471 31.583 73.782 31.583 116.833 0 128.066-103.818 231.884-231.884 231.884-79.401 0-149.482-39.908-191.277-100.76l-0.511-0.787c-9.469-13.871-25.204-22.858-43.038-22.858-28.689 0-51.945 23.257-51.945 51.945 0 10.855 3.33 20.932 9.023 29.266l-0.115-0.179c61.157 90.054 163.087 148.439 278.654 148.439 185.44 0 335.768-150.329 335.768-335.768 0-46.213-9.336-90.246-26.225-130.315l0.826 2.207c123.066-99.501 201.108-250.467 201.108-419.661 0-1.55-0.007-3.099-0.020-4.646l0.002 0.237c0-28.687-23.255-51.942-51.942-51.942v0zM534.261-36.042h-482.319c-28.687 0-51.942 23.255-51.942 51.942v0c-0.010 1.226-0.016 2.675-0.016 4.125 0 169.325 78.131 320.402 200.308 419.146l1.021 0.798c-15.917 37.705-25.166 81.543-25.166 127.541 0 185.44 150.329 335.768 335.768 335.768 115.327 0 217.074-58.143 277.526-146.714l0.746-1.158c5.578-8.155 8.908-18.233 8.908-29.088 0-28.689-23.257-51.945-51.945-51.945-17.834 0-33.568 8.987-42.922 22.679l-0.115 0.179c-42.306 61.639-112.386 101.547-191.788 101.547-128.066 0-231.884-103.818-231.884-231.884 0-43.051 11.732-83.362 32.173-117.909l-0.589 1.077c4.52-7.546 7.194-16.647 7.194-26.373 0-18.050-9.206-33.949-23.18-43.258l-0.19-0.119c-103.734-69.968-174.713-181.706-188.824-310.546l-0.171-1.922h427.409c28.687 0 51.942-23.255 51.942-51.942s-23.255-51.942-51.942-51.942v0z" />
</font>
</defs>
</svg>
